<svg width="873" height="755" viewBox="0 0 873 755" fill="none" xmlns="http://www.w3.org/2000/svg">
<path d="M759.073 601.72H129.326C129.326 601.72 104.289 608.787 90.4777 552.554C76.6668 496.322 147.746 481.252 164.648 432.69C181.549 384.129 107.815 394.352 114.014 327.896C120.212 261.441 221.532 260.158 270.682 269.112C319.832 278.066 313.686 247.383 370.519 196.255C427.351 145.126 513.324 150.26 556.31 189.867C599.297 229.475 585.504 270.381 639.263 270.381C693.022 270.381 742.172 279.335 774.421 364.952C806.669 450.569 747.724 489.708 748.79 528.304C749.691 552.991 753.132 577.56 759.073 601.72Z" fill="#145A31"/>
<path opacity="0.6" d="M759.073 601.72H129.326C129.326 601.72 104.289 608.787 90.4777 552.554C76.6668 496.322 147.746 481.252 164.648 432.69C181.549 384.129 107.815 394.352 114.014 327.896C120.212 261.441 221.532 260.158 270.682 269.112C319.832 278.066 313.686 247.383 370.519 196.255C427.351 145.126 513.324 150.26 556.31 189.867C599.297 229.475 585.504 270.381 639.263 270.381C693.022 270.381 742.172 279.335 774.421 364.952C806.669 450.569 747.724 489.708 748.79 528.304C749.691 552.991 753.132 577.56 759.073 601.72Z" fill="white"/>
<path d="M484.218 188.297H365.49V336.277H484.218V188.297Z" fill="#145A31"/>
<path opacity="0.4" d="M484.218 188.297H365.49V336.277H484.218V188.297Z" fill="white"/>
<path d="M467.265 209.437H382.461V315.137H467.265V209.437Z" fill="white"/>
<path d="M270.944 276.889H188.568V379.569H270.944V276.889Z" fill="#145A31"/>
<path opacity="0.4" d="M270.944 276.889H188.568V379.569H270.944V276.889Z" fill="white"/>
<path d="M259.176 291.551H200.336V364.891H259.176V291.551Z" fill="white"/>
<path d="M670.778 276.889H588.402V379.569H670.778V276.889Z" fill="#145A31"/>
<path opacity="0.4" d="M670.778 276.889H588.402V379.569H670.778V276.889Z" fill="white"/>
<path d="M659.01 291.551H600.17V364.891H659.01V291.551Z" fill="white"/>
<path d="M579.026 482.309C575.534 489.859 571.832 483.819 572.409 452.018C572.688 437.13 573.893 406.718 592.942 413.408C611.222 419.84 587.127 464.823 587.127 464.823L579.026 482.309ZM605.216 486.839C605.216 486.839 644.902 451.067 630.009 439.848C614.522 428.16 601.951 456.594 596.102 470.607C583.635 500.489 584.788 507.269 590.986 501.093L605.216 486.839ZM613.579 518.942C613.579 518.942 649.914 496.563 640.415 486.114C630.533 475.242 616.163 495.416 609.336 505.382C594.792 526.673 594.548 532.003 600.31 528.032L613.579 518.942ZM623.409 550.954C623.409 550.954 659.761 528.575 650.263 518.126C640.363 507.254 625.993 527.413 619.184 537.394C604.64 558.67 604.378 564.015 610.157 560.044L623.409 550.954ZM559.96 486.597C559.96 486.597 509.099 463.706 500.84 479.214C492.232 495.355 527.309 497.802 544.49 498.708C581.156 500.671 588.367 497.802 579.777 494.389L559.96 486.597ZM567.118 511.784C567.118 511.784 512.014 498.104 507.475 514.729C502.761 532.018 537.698 528.319 554.757 526.326C591.143 521.947 597.534 517.9 588.332 516.027L567.118 511.784ZM579.724 539.266C579.724 539.266 532.774 528.787 529.37 542.936C525.878 557.658 555.298 553.883 569.667 551.799C600.31 547.36 605.618 543.811 597.795 542.422L579.724 539.266ZM587.075 561.916C587.075 561.916 541.679 547.179 536.563 560.935C531.238 575.265 561.007 574.208 575.534 573.453C606.56 571.852 612.2 568.817 604.64 566.703L587.075 561.916ZM556.642 446.96C556.642 446.96 535.917 391.241 512.381 401.373C487.937 411.943 516.187 437.024 530.347 449.059C560.536 474.729 569.877 476.511 565.913 467.556L556.642 446.96Z" fill="white"/>
<path d="M522.229 421.29C522.229 421.29 574.294 476.224 586.743 503.721C601.06 535.325 610.803 570.916 612.741 600.361" stroke="#CCCCCC" stroke-width="1.25197" stroke-linecap="round" stroke-linejoin="round"/>
<path d="M576.372 485.767L583.618 433.385" stroke="#CCCCCC" stroke-width="1.25197" stroke-linecap="round" stroke-linejoin="round"/>
<path d="M586.743 503.706L612.933 459.674" stroke="#CCCCCC" stroke-width="1.25197" stroke-linecap="round" stroke-linejoin="round"/>
<path d="M582.919 497.183L528.06 487.519" stroke="#CCCCCC" stroke-width="1.25197" stroke-linecap="round" stroke-linejoin="round"/>
<path d="M597.045 528.696L629.293 496.926" stroke="#CCCCCC" stroke-width="1.25197" stroke-linecap="round" stroke-linejoin="round"/>
<path d="M592.54 518.232L551.142 517.915" stroke="#CCCCCC" stroke-width="1.25197" stroke-linecap="round" stroke-linejoin="round"/>
<path d="M600.519 544.234L568.759 545.306" stroke="#CCCCCC" stroke-width="1.25197" stroke-linecap="round" stroke-linejoin="round"/>
<path d="M607.032 560.814L624.038 541.214" stroke="#CCCCCC" stroke-width="1.25197" stroke-linecap="round" stroke-linejoin="round"/>
<path d="M608.289 568.107L571.134 566.507" stroke="#CCCCCC" stroke-width="1.25197" stroke-linecap="round" stroke-linejoin="round"/>
<path d="M711.757 525.691C705.349 527.775 707.305 523.109 727.122 507.768C736.41 500.565 755.721 486.175 760.959 498.224C766.005 509.806 726.493 520.874 726.493 520.874L711.757 525.691ZM721.831 539.931C721.831 539.931 763.351 540.61 762.932 528.243C762.496 515.378 738.837 523.562 727.349 527.76C702.905 536.714 699.221 540.58 706.065 540.399L721.831 539.931ZM706.205 559.561C706.205 559.561 737.825 565.284 739.588 555.771C741.334 545.88 721.936 549.187 712.455 550.954C692.219 554.714 688.814 557.22 694.07 557.945L706.205 559.561ZM691.416 579.84C691.416 579.84 723.053 585.563 724.799 576.05C726.633 566.159 707.165 569.451 697.667 571.218C677.448 574.978 673.956 577.484 679.194 578.209L691.416 579.84ZM699.814 519.017C699.814 519.017 688.884 484.363 675.37 488.183C661.21 492.154 676.959 509.504 684.851 517.854C701.665 535.688 706.973 537.59 704.843 531.958L699.814 519.017ZM687.837 534.691C687.837 534.691 669.172 502.619 656.723 508.689C643.75 515.031 663.166 529.315 672.804 536.141C693.389 550.727 698.994 551.678 695.659 546.529L687.837 534.691ZM677.134 553.989C677.134 553.989 660.494 527.247 650.123 532.637C639.333 538.255 656.129 549.942 664.475 555.529C682.267 567.443 687.051 568.137 684.065 563.849L677.134 553.989ZM666.797 568.53C666.797 568.53 653.528 540.399 642.563 544.808C631.144 549.338 646.404 562.566 654.017 568.892C670.254 582.377 674.969 583.509 672.489 578.964L666.797 568.53ZM722.512 498.058C722.512 498.058 746.59 461.139 728.798 455.295C710.29 449.255 708.736 474.578 708.3 487.005C707.357 513.521 710.849 518.715 714.411 512.464L722.512 498.058Z" fill="white"/>
<path d="M721.36 469.61C721.36 469.61 713.171 520.557 702.381 539.81C689.984 561.916 671.267 585.457 654.086 600.829" stroke="#CCCCCC" stroke-width="1.25197" stroke-linecap="round" stroke-linejoin="round"/>
<path d="M708.317 526.175L744.093 503.766" stroke="#CCCCCC" stroke-width="1.25197" stroke-linecap="round" stroke-linejoin="round"/>
<path d="M702.381 539.765L742.329 530.161" stroke="#CCCCCC" stroke-width="1.25197" stroke-linecap="round" stroke-linejoin="round"/>
<path d="M704.511 534.797L683.489 504.808" stroke="#CCCCCC" stroke-width="1.25197" stroke-linecap="round" stroke-linejoin="round"/>
<path d="M692.079 556.782L727.471 555.997" stroke="#CCCCCC" stroke-width="1.25197" stroke-linecap="round" stroke-linejoin="round"/>
<path d="M696.305 549.565L676.138 530.357" stroke="#CCCCCC" stroke-width="1.25197" stroke-linecap="round" stroke-linejoin="round"/>
<path d="M684.222 566.008L667.95 551.935" stroke="#CCCCCC" stroke-width="1.25197" stroke-linecap="round" stroke-linejoin="round"/>
<path d="M677.221 577.167L697.649 575.355" stroke="#CCCCCC" stroke-width="1.25197" stroke-linecap="round" stroke-linejoin="round"/>
<path d="M673.345 581.32L656.077 563.457" stroke="#CCCCCC" stroke-width="1.25197" stroke-linecap="round" stroke-linejoin="round"/>
<path d="M176.713 482.309C173.221 489.859 169.519 483.819 170.095 452.018C170.375 437.13 171.579 406.718 190.628 413.408C208.926 419.84 184.814 464.823 184.814 464.823L176.713 482.309ZM202.903 486.839C202.903 486.839 242.589 451.067 227.713 439.848C212.209 428.16 199.638 456.594 193.788 470.607C181.322 500.489 182.474 507.269 188.673 501.093L202.903 486.839ZM211.266 518.911C211.266 518.911 247.618 496.533 238.102 486.084C228.22 475.212 213.85 495.386 207.023 505.352C192.479 526.643 192.235 531.973 198.014 528.002L211.266 518.911ZM221.113 550.923C221.113 550.923 257.413 528.5 247.932 518.096C238.032 507.224 223.663 527.383 216.853 537.364C202.309 558.64 202.047 563.985 207.826 560.014L221.113 550.923ZM157.611 486.567C157.611 486.567 106.768 463.676 98.4918 479.183C89.884 495.325 124.961 497.771 142.142 498.677C178.808 500.64 186.001 497.771 177.411 494.359L157.611 486.567ZM164.77 511.754C164.77 511.754 109.684 498.073 105.127 514.699C100.412 531.988 135.35 528.289 152.408 526.295C188.795 521.916 195.203 517.87 186.001 515.997L164.77 511.754ZM177.376 539.236C177.376 539.236 130.426 528.757 127.021 542.905C123.529 557.628 152.95 553.853 167.319 551.769C197.961 547.33 203.269 543.781 195.447 542.392L177.376 539.236ZM184.727 561.886C184.727 561.886 139.331 547.148 134.215 560.905C128.89 575.234 158.659 574.177 173.186 573.422C204.212 571.822 209.852 568.787 202.309 566.673L184.727 561.886ZM154.329 446.96C154.329 446.96 133.604 391.301 109.998 401.433C85.5539 412.003 113.804 437.085 127.964 449.119C158.17 474.789 167.511 476.571 163.53 467.617L154.329 446.96Z" fill="white"/>
<path d="M119.915 421.29C119.915 421.29 171.981 476.224 184.43 503.721C198.747 535.325 208.49 570.916 210.428 600.361" stroke="#CCCCCC" stroke-width="1.25197" stroke-linecap="round" stroke-linejoin="round"/>
<path d="M174.076 485.767L181.305 433.385" stroke="#CCCCCC" stroke-width="1.25197" stroke-linecap="round" stroke-linejoin="round"/>
<path d="M184.43 503.706L210.62 459.674" stroke="#CCCCCC" stroke-width="1.25197" stroke-linecap="round" stroke-linejoin="round"/>
<path d="M180.606 497.183L125.764 487.519" stroke="#CCCCCC" stroke-width="1.25197" stroke-linecap="round" stroke-linejoin="round"/>
<path d="M194.731 528.696L226.98 496.926" stroke="#CCCCCC" stroke-width="1.25197" stroke-linecap="round" stroke-linejoin="round"/>
<path d="M190.227 518.232L148.829 517.915" stroke="#CCCCCC" stroke-width="1.25197" stroke-linecap="round" stroke-linejoin="round"/>
<path d="M198.206 544.234L166.446 545.306" stroke="#CCCCCC" stroke-width="1.25197" stroke-linecap="round" stroke-linejoin="round"/>
<path d="M204.736 560.814L221.742 541.214" stroke="#CCCCCC" stroke-width="1.25197" stroke-linecap="round" stroke-linejoin="round"/>
<path d="M205.976 568.107L168.821 566.507" stroke="#CCCCCC" stroke-width="1.25197" stroke-linecap="round" stroke-linejoin="round"/>
<path d="M309.444 525.691C303.036 527.775 304.991 523.109 324.808 507.768C334.115 500.565 353.408 486.175 358.646 498.224C363.692 509.806 324.18 520.874 324.18 520.874L309.444 525.691ZM319.518 539.931C319.518 539.931 361.038 540.61 360.619 528.243C360.182 515.378 336.524 523.562 325.035 527.76C300.591 536.714 296.907 540.58 303.752 540.399L319.518 539.931ZM303.891 559.561C303.891 559.561 335.511 565.284 337.275 555.771C339.021 545.88 319.623 549.187 310.142 550.954C289.836 554.714 286.501 557.19 291.757 557.945L303.891 559.561ZM289.033 579.84C289.033 579.84 320.67 585.563 322.416 576.05C324.25 566.159 304.782 569.451 295.301 571.218C275.047 574.993 271.643 577.499 276.916 578.224L289.033 579.84ZM297.431 519.017C297.431 519.017 286.519 484.363 272.987 488.183C258.827 492.154 274.559 509.504 282.45 517.854C299.264 535.688 304.572 537.59 302.442 531.958L297.431 519.017ZM285.454 534.691C285.454 534.691 266.789 502.619 254.34 508.689C241.367 515.031 260.783 529.315 270.438 536.141C291.023 550.727 296.628 551.678 293.276 546.529L285.454 534.691ZM274.751 553.989C274.751 553.989 258.111 527.247 247.74 532.637C236.95 538.255 253.746 549.942 262.092 555.529C279.884 567.443 284.685 568.137 281.682 563.849L274.751 553.989ZM264.414 568.53C264.414 568.53 251.162 540.399 240.18 544.808C228.761 549.338 244.038 562.566 251.634 568.892C267.871 582.377 272.586 583.509 270.106 578.964L264.414 568.53ZM320.129 498.058C320.129 498.058 344.224 461.139 326.432 455.295C307.907 449.255 306.371 474.578 305.917 487.005C304.991 513.521 308.466 518.715 312.028 512.464L320.129 498.058Z" fill="white"/>
<path d="M319.047 469.61C319.047 469.61 310.858 520.557 300.068 539.81C287.671 561.916 268.954 585.457 251.773 600.829" stroke="#CCCCCC" stroke-width="1.25197" stroke-linecap="round" stroke-linejoin="round"/>
<path d="M306.004 526.175L341.779 503.766" stroke="#CCCCCC" stroke-width="1.25197" stroke-linecap="round" stroke-linejoin="round"/>
<path d="M300.068 539.765L340.016 530.161" stroke="#CCCCCC" stroke-width="1.25197" stroke-linecap="round" stroke-linejoin="round"/>
<path d="M302.198 534.797L281.176 504.808" stroke="#CCCCCC" stroke-width="1.25197" stroke-linecap="round" stroke-linejoin="round"/>
<path d="M289.766 556.782L325.158 555.997" stroke="#CCCCCC" stroke-width="1.25197" stroke-linecap="round" stroke-linejoin="round"/>
<path d="M293.992 549.565L273.825 530.357" stroke="#CCCCCC" stroke-width="1.25197" stroke-linecap="round" stroke-linejoin="round"/>
<path d="M281.909 566.008L265.636 551.935" stroke="#CCCCCC" stroke-width="1.25197" stroke-linecap="round" stroke-linejoin="round"/>
<path d="M274.908 577.167L295.336 575.355" stroke="#CCCCCC" stroke-width="1.25197" stroke-linecap="round" stroke-linejoin="round"/>
<path d="M271.049 581.32L253.764 563.457" stroke="#CCCCCC" stroke-width="1.25197" stroke-linecap="round" stroke-linejoin="round"/>
<path d="M409.385 289.467C409.385 289.467 387.036 283.306 369.942 298.527C352.849 313.748 361.858 344.144 361.858 354.82C361.858 365.496 346.144 433.34 346.144 433.34C346.144 433.34 338.532 457.998 359.449 473.627C380.366 489.255 419.023 487.896 435.522 457.817C452.022 427.738 434.527 384.854 434.527 362.687C434.527 340.52 438.333 325.707 432.624 309.686C430.891 304.959 427.878 300.659 423.836 297.142C419.794 293.626 414.839 290.994 409.385 289.467Z" fill="#263238" stroke="#263238" stroke-linecap="round" stroke-linejoin="round"/>
<path d="M402.75 300.988C402.75 300.988 381.204 324.152 366.66 330.69" stroke="white" stroke-linecap="round" stroke-linejoin="round"/>
<path d="M384.12 298.98C384.12 298.98 373.068 322.128 363.168 328.682" stroke="white" stroke-linecap="round" stroke-linejoin="round"/>
<path d="M446.12 378.602C448.185 379.854 449.919 381.47 451.207 383.344C452.495 385.219 453.309 387.308 453.593 389.474C454.868 397.175 445.37 414.978 443.467 423.781C441.668 434.469 440.509 445.229 439.992 456.02C439.992 458.768 450.817 499.478 452.72 509.383C454.624 519.289 451.76 542.603 450.171 544.31C448.582 546.016 444.13 537.983 443.816 532.758C443.502 527.534 431.733 487.368 427.281 475.272C422.829 463.177 424.086 447.217 424.086 447.217C424.086 447.217 430.145 410.629 430.145 396.601C430.145 382.574 430.633 372.079 430.633 372.079L446.12 378.602Z" fill="#145A31" stroke="#263238" stroke-linecap="round" stroke-linejoin="round"/>
<path d="M450.136 544.249C451.725 542.603 454.589 519.213 452.685 509.323C450.782 499.432 439.992 458.708 439.992 456.02C440.517 445.249 441.682 434.509 443.484 423.842C444.183 421.019 445.081 418.235 446.173 415.507C442.431 417.065 438.33 417.87 434.178 417.862C431.96 417.862 429.795 419.629 427.718 422.634C425.972 435.409 424.069 447.217 424.069 447.217C424.069 447.217 422.811 463.162 427.264 475.272C431.716 487.383 443.484 527.534 443.798 532.758C444.113 537.983 448.547 545.895 450.136 544.249Z" fill="white" stroke="#263238" stroke-linecap="round" stroke-linejoin="round"/>
<path d="M386.285 602.007C386.983 595.242 388.45 581.471 389.393 576.156C390.668 569.013 393.199 554.427 393.199 554.427L399.642 602.007H443.781C445.37 591.633 449.368 563.819 450.136 544.249C451.097 519.772 429.778 469.157 429.184 465.306C428.591 461.456 429.813 450.206 429.813 446.884C429.813 443.562 440.917 422.483 441.86 411.747C442.803 401.011 445.684 397.719 445.684 397.719L447.273 379.599C446.313 379.327 432.048 369.618 417.731 366.009C409.023 363.872 399.831 363.685 391.017 365.465C391.017 365.465 370.344 373.438 359.851 377.289C349.357 381.139 340.732 388.568 340.47 398.187C340.208 407.806 360.811 448.802 362.731 451.837C364.652 454.872 358.593 465.578 356.044 471.09C353.495 476.601 343.002 496.397 336.018 518.398C330.029 537.182 334.027 587.662 335.337 602.007H386.285Z" fill="#145A31" stroke="#263238" stroke-linecap="round" stroke-linejoin="round"/>
<path d="M396.202 444.242C396.202 444.242 412.51 445.933 428.835 432.388" stroke="#263238" stroke-linecap="round" stroke-linejoin="round"/>
<path d="M407.516 404.801C412.283 403.698 418.342 386.681 418.97 377.847C419.319 372.91 419.669 369.225 419.511 366.507C418.918 366.341 418.307 366.16 417.765 366.009C409.058 363.872 399.866 363.685 391.052 365.465L382.636 368.697C381.933 372.608 382.421 376.61 384.05 380.309C387.49 388.568 402.75 405.903 407.516 404.801Z" fill="white" stroke="#263238" stroke-linecap="round" stroke-linejoin="round"/>
<path d="M386.215 357.024C386.215 357.024 387.822 373.227 388.782 377.198C389.742 381.169 399.398 396.828 404.863 395.967C410.327 395.107 413.802 374.646 413.802 372.653C413.802 370.66 414.448 354.533 414.448 354.533C414.448 354.533 402.942 362.702 386.215 357.024Z" fill="white" stroke="#263238" stroke-linecap="round" stroke-linejoin="round"/>
<path d="M354.717 380.037C354.717 380.037 341.692 380.595 334.376 393.249C327.061 405.903 335.634 414.389 338.497 419.372C341.36 424.355 349.322 444.68 351.854 450.735C354.386 456.79 359.501 463.932 368.406 473.838C377.311 483.744 396.063 504.914 396.063 504.914L401.161 512.615C401.161 512.615 409.751 521.146 410.694 521.418C411.637 521.69 417.381 528.017 419.599 524.166C421.816 520.316 419.599 506.575 419.599 506.575C419.599 506.575 423.091 512.615 424.383 511.241C425.675 509.867 424.051 506.847 422.794 503.54C421.537 500.233 409.769 493.921 407.202 493.634C404.636 493.347 401.475 490.614 397.669 484.015C393.863 477.417 390.982 465.895 384.941 458.98C378.899 452.064 370.973 441.932 370.973 441.932C370.973 441.932 362.068 414.419 362.068 413.317C362.718 408.18 361.847 402.983 359.536 398.217" fill="#145A31"/>
<path d="M354.717 380.037C354.717 380.037 341.692 380.595 334.376 393.249C327.061 405.903 335.634 414.389 338.497 419.372C341.36 424.355 349.322 444.68 351.854 450.735C354.386 456.79 359.501 463.932 368.406 473.838C377.311 483.744 396.063 504.914 396.063 504.914L401.161 512.615C401.161 512.615 409.751 521.146 410.694 521.418C411.637 521.69 417.381 528.017 419.599 524.166C421.816 520.316 419.599 506.575 419.599 506.575C419.599 506.575 423.091 512.615 424.383 511.241C425.675 509.867 424.051 506.847 422.794 503.54C421.537 500.233 409.769 493.921 407.202 493.634C404.636 493.347 401.475 490.614 397.669 484.015C393.863 477.417 390.982 465.895 384.941 458.98C378.899 452.064 370.973 441.932 370.973 441.932C370.973 441.932 362.068 414.419 362.068 413.317C362.718 408.18 361.847 402.983 359.536 398.217" stroke="#263238" stroke-linecap="round" stroke-linejoin="round"/>
<path d="M407.202 493.634C404.653 493.362 401.475 490.614 397.669 484.015C393.863 477.417 390.982 465.895 384.941 458.98C378.9 452.064 370.973 441.932 370.973 441.932C370.973 441.932 364.949 423.298 362.819 416.096C351.121 414.676 343.403 416.715 338.497 419.312C341.361 424.265 349.322 444.62 351.854 450.675C354.386 456.73 359.501 463.872 368.406 473.778C377.311 483.683 396.063 504.853 396.063 504.853L401.161 512.554C401.161 512.554 409.751 521.086 410.694 521.358C411.637 521.63 417.381 527.956 419.599 524.106C421.816 520.255 419.599 506.514 419.599 506.514C419.599 506.514 423.091 512.554 424.383 511.18C425.675 509.806 424.051 506.786 422.794 503.479C421.537 500.172 409.769 493.921 407.202 493.634Z" fill="white" stroke="#263238" stroke-linecap="round" stroke-linejoin="round"/>
<path d="M386.285 602.007C386.983 595.242 388.45 581.471 389.393 576.156C390.668 569.013 393.199 554.427 393.199 554.427L399.642 602.007H443.781C445.37 591.633 449.368 563.819 450.136 544.249C450.538 534.057 447.063 519.319 442.838 505.321C405.526 512.388 363.22 507.269 341.256 503.585C339.405 508.311 337.589 513.279 336.018 518.398C330.029 537.182 334.027 587.662 335.337 602.007H386.285Z" fill="#263238" stroke="#263238" stroke-linecap="round" stroke-linejoin="round"/>
<path d="M375.163 332.895C375.163 332.895 372.317 331.792 372.317 336.73C372.317 341.668 378.655 344.944 378.655 344.944L375.163 332.895Z" fill="white" stroke="#263238" stroke-linecap="round" stroke-linejoin="round"/>
<path d="M407.831 305.775C407.831 305.775 397.669 318.157 388.747 323.11C384.144 325.727 379.369 328.112 374.447 330.252C374.447 330.252 378.899 346.213 380.803 351.392C382.706 356.571 388.415 365.722 399.869 366.266C411.323 366.809 416.421 356.345 418.656 351.392C419.928 348.833 420.61 346.084 420.664 343.299C422.271 342.42 423.642 341.254 424.684 339.879C425.726 338.503 426.415 336.951 426.705 335.326C427.333 330.101 425.745 330.373 425.745 330.373C425.745 330.373 423.999 332.079 420.21 329.512C417.137 327.534 406.818 313.204 407.831 305.775Z" fill="white" stroke="#263238" stroke-linecap="round" stroke-linejoin="round"/>
<path d="M383.579 337.047C383.579 337.047 388.066 334.208 394.631 337.047" stroke="#263238" stroke-linecap="round" stroke-linejoin="round"/>
<path d="M403.885 337.561C403.885 337.561 409.262 333.423 414.937 336.79" stroke="#263238" stroke-linecap="round" stroke-linejoin="round"/>
<path d="M382.688 330.841C382.688 330.841 385.08 326.975 393.164 328.787" stroke="#263238" stroke-linecap="round" stroke-linejoin="round"/>
<path d="M403.885 329.044C405.713 327.89 407.969 327.357 410.222 327.547C412.475 327.736 414.569 328.634 416.107 330.071" stroke="#263238" stroke-linecap="round" stroke-linejoin="round"/>
<path d="M402.994 346.077C402.994 346.077 398.21 348.916 396.133 346.077" stroke="#263238" stroke-linecap="round" stroke-linejoin="round"/>
<path d="M394.334 352.026C394.334 352.026 400.305 354.08 403.291 351.77" stroke="#263238" stroke-linecap="round" stroke-linejoin="round"/>
<path d="M293.415 500.459C293.415 500.459 307.383 527.277 310.718 532.683C314.053 538.088 317.929 553.475 318.401 562.611C318.872 571.746 318.401 573.634 316.009 573.422C313.617 573.211 312.639 561.78 312.639 559.908V557.009C312.639 557.009 311.434 567.805 309.513 569.889C307.593 571.973 304.939 574.253 304.712 573.015C304.485 571.777 305.183 569.678 306.144 566.567C306.724 564.175 306.888 561.722 306.633 559.289C306.633 559.289 305.183 565.102 301.831 567.186C298.479 569.27 294.847 570.1 296.052 568.439C297.256 566.778 300.382 564.906 301.098 562.822C301.593 560.914 301.839 558.964 301.831 557.009C301.831 557.009 297.256 563.441 295.336 564.483C293.415 565.525 293.415 563.245 294.62 562.203C295.825 561.161 298.461 554.094 298.461 554.094C298.461 554.094 297.728 553.672 294.376 547.239C291.023 540.806 289.138 529.557 288.125 525.193C287.112 520.829 285.244 515.016 285.244 515.016L266.736 488.198C266.736 488.198 265.287 481.75 272.254 480.648C279.22 479.546 293.415 500.459 293.415 500.459Z" fill="white"/>
<mask id="mask0_8_346" style="mask-type:luminance" maskUnits="userSpaceOnUse" x="266" y="480" width="53" height="94">
<path d="M293.415 500.459C293.415 500.459 307.383 527.277 310.718 532.683C314.053 538.088 317.929 553.475 318.401 562.611C318.872 571.746 318.401 573.634 316.009 573.422C313.617 573.211 312.639 561.78 312.639 559.908V557.009C312.639 557.009 311.434 567.805 309.513 569.889C307.593 571.973 304.939 574.253 304.712 573.015C304.485 571.777 305.183 569.678 306.144 566.567C306.724 564.175 306.888 561.722 306.633 559.289C306.633 559.289 305.183 565.102 301.831 567.186C298.479 569.27 294.847 570.1 296.052 568.439C297.256 566.778 300.382 564.906 301.098 562.822C301.593 560.914 301.839 558.964 301.831 557.009C301.831 557.009 297.256 563.441 295.336 564.483C293.415 565.525 293.415 563.245 294.62 562.203C295.825 561.161 298.461 554.094 298.461 554.094C298.461 554.094 297.728 553.672 294.376 547.239C291.023 540.806 289.138 529.557 288.125 525.193C287.112 520.829 285.244 515.016 285.244 515.016L266.736 488.198C266.736 488.198 265.287 481.75 272.254 480.648C279.22 479.546 293.415 500.459 293.415 500.459Z" fill="white"/>
</mask>
<g mask="url(#mask0_8_346)">
<path opacity="0.15" d="M293.415 500.459C293.415 500.459 307.383 527.277 310.718 532.683C314.053 538.088 317.929 553.475 318.401 562.611C318.872 571.746 318.401 573.634 316.009 573.422C313.617 573.211 312.639 561.78 312.639 559.908V557.009C312.639 557.009 311.434 567.805 309.513 569.889C307.593 571.973 304.939 574.253 304.712 573.015C304.485 571.777 305.183 569.678 306.144 566.567C306.724 564.175 306.888 561.722 306.633 559.289C306.633 559.289 305.183 565.102 301.831 567.186C298.479 569.27 294.847 570.1 296.052 568.439C297.256 566.778 300.382 564.906 301.098 562.822C301.593 560.914 301.839 558.964 301.831 557.009C301.831 557.009 297.256 563.441 295.336 564.483C293.415 565.525 293.415 563.245 294.62 562.203C295.825 561.161 298.461 554.094 298.461 554.094C298.461 554.094 297.728 553.672 294.376 547.239C291.023 540.806 289.138 529.557 288.125 525.193C287.112 520.829 285.244 515.016 285.244 515.016L266.736 488.198C266.736 488.198 265.287 481.75 272.254 480.648C279.22 479.546 293.415 500.459 293.415 500.459Z" fill="black"/>
</g>
<path d="M293.415 500.459C293.415 500.459 307.383 527.277 310.718 532.683C314.053 538.088 317.929 553.475 318.401 562.611C318.872 571.746 318.401 573.634 316.009 573.422C313.617 573.211 312.639 561.78 312.639 559.908V557.009C312.639 557.009 311.434 567.805 309.513 569.889C307.593 571.973 304.939 574.253 304.712 573.015C304.485 571.777 305.183 569.678 306.144 566.567C306.724 564.175 306.888 561.722 306.633 559.289C306.633 559.289 305.183 565.102 301.831 567.186C298.479 569.27 294.847 570.1 296.052 568.439C297.256 566.778 300.382 564.906 301.098 562.822C301.593 560.914 301.839 558.964 301.831 557.009C301.831 557.009 297.256 563.441 295.336 564.483C293.415 565.525 293.415 563.245 294.62 562.203C295.825 561.161 298.461 554.094 298.461 554.094C298.461 554.094 297.728 553.672 294.376 547.239C291.023 540.806 289.138 529.557 288.125 525.193C287.112 520.829 285.244 515.016 285.244 515.016L266.736 488.198C266.736 488.198 265.287 481.75 272.254 480.648C279.22 479.546 293.415 500.459 293.415 500.459Z" stroke="#263238" stroke-linecap="round" stroke-linejoin="round"/>
<path d="M310.788 540.58C310.788 540.58 313.198 550.772 312.953 555.333C312.709 559.893 313.913 562.203 312.22 562.203C310.526 562.203 310.072 561.161 308.379 556.586C307.264 553.193 306.538 549.713 306.214 546.197C306.214 546.197 300.207 546.197 298.042 538.496" fill="white"/>
<mask id="mask1_8_346" style="mask-type:luminance" maskUnits="userSpaceOnUse" x="298" y="538" width="16" height="25">
<path d="M310.788 540.58C310.788 540.58 313.198 550.772 312.953 555.333C312.709 559.893 313.913 562.203 312.22 562.203C310.526 562.203 310.072 561.161 308.379 556.586C307.264 553.193 306.538 549.713 306.214 546.197C306.214 546.197 300.207 546.197 298.042 538.496" fill="white"/>
</mask>
<g mask="url(#mask1_8_346)">
<path opacity="0.15" d="M310.788 540.58C310.788 540.58 313.198 550.772 312.953 555.333C312.709 559.893 313.913 562.203 312.22 562.203C310.526 562.203 310.072 561.161 308.379 556.586C307.264 553.193 306.538 549.713 306.214 546.197C306.214 546.197 300.207 546.197 298.042 538.496" fill="black"/>
</g>
<path d="M310.788 540.58C310.788 540.58 313.198 550.772 312.953 555.333C312.709 559.893 313.913 562.203 312.22 562.203C310.526 562.203 310.072 561.161 308.379 556.586C307.264 553.193 306.538 549.713 306.214 546.197C306.214 546.197 300.207 546.197 298.042 538.496" stroke="#263238" stroke-linecap="round" stroke-linejoin="round"/>
<path d="M203.496 602.007H291.984C292.42 587.692 295.318 494.193 296.191 490.01C297.152 485.48 301.901 442.747 302.372 425.911C302.844 409.074 294.288 384.808 294.288 383.162C294.288 381.517 292.874 371.249 279.57 362.611C266.265 353.974 255.806 353.989 252.96 355.212C252.96 355.212 242.484 361.388 225.863 376.594C209.241 391.8 203.531 404.121 203.531 427.541C203.544 441.715 204.975 455.861 207.809 469.821C207.809 469.821 202.571 542.966 202.571 544.612C202.571 546.258 203.339 592.237 203.496 602.007Z" fill="white" stroke="#263238" stroke-linecap="round" stroke-linejoin="round"/>
<path d="M243.654 436.662C245.533 436.658 247.409 436.567 249.276 436.39C269.635 434.472 287.339 416.473 299.02 400.92C298.479 398.67 297.937 396.511 297.396 394.533C286.379 410.071 268.57 430.018 248.718 431.89C221.079 434.487 208.56 415.658 205.068 409.572C204.579 411.898 204.212 414.344 203.968 416.926C210.149 425.02 222.633 436.662 243.654 436.662Z" fill="#263238"/>
<path d="M237.02 400.331L242.083 401.494C247.302 385.059 257.557 370.149 271.765 358.338C270.073 357.567 268.323 356.896 266.527 356.33C252.391 368.5 242.213 383.676 237.02 400.331Z" fill="#263238"/>
<path d="M241.996 422C243.183 421.471 267.924 410.327 294.044 381.23C293.639 379.406 292.994 377.627 292.123 375.93C265.829 406.13 239.9 417.817 239.621 417.938L241.996 422Z" fill="#263238"/>
<path d="M216.172 405.616L221.41 404.937C221.41 404.816 219.891 394.11 232.078 371.128C230.123 372.804 228.08 374.616 225.915 376.594C224.518 377.862 223.226 379.116 221.986 380.369C214.845 397.13 216.102 405.163 216.172 405.616Z" fill="#263238"/>
<path d="M259.368 472.736C229.267 476.118 213.972 470.652 207.128 466.454C207.53 468.659 207.809 469.882 207.809 469.882C207.809 469.882 207.809 470.682 207.652 472.132C214.356 475.318 225.112 478.338 241.577 478.338C247.755 478.315 253.925 477.946 260.049 477.235C273.924 475.692 287.262 471.616 299.177 465.276C299.387 463.374 299.579 461.426 299.771 459.448C287.692 466.552 273.853 471.104 259.368 472.736Z" fill="#263238"/>
<path d="M257.814 500.61C271.651 497.567 284.825 492.6 296.82 485.903C297.03 484.272 297.274 482.279 297.553 479.999C285.093 487.438 271.216 492.922 256.557 496.201C236.286 500.505 216.609 495.703 206.22 492.245C206.115 493.755 205.993 495.386 205.888 497.016C216.656 500.517 228.049 502.362 239.551 502.468C245.703 502.479 251.834 501.855 257.814 500.61Z" fill="#263238"/>
<path d="M203.549 530.206C203.426 531.837 203.322 533.377 203.234 534.736C216.733 537.538 230.558 538.992 244.44 539.07C261.509 539.23 278.456 536.576 294.376 531.248C294.376 529.587 294.498 527.926 294.55 526.31C259.49 539.07 221.986 534.087 203.549 530.206Z" fill="#263238"/>
<path d="M261.638 515.257C242.848 519.196 223.177 518.675 204.701 513.747C204.596 515.333 204.474 516.903 204.369 518.459C214.552 521.151 225.149 522.49 235.797 522.43C244.912 522.421 253.997 521.519 262.878 519.742C274.13 517.487 284.999 513.985 295.214 509.323C295.214 507.451 295.371 505.669 295.441 504.008C284.842 509.115 273.462 512.902 261.638 515.257Z" fill="#263238"/>
<path d="M246.972 451.49C225.496 452.426 211.615 445.571 203.915 439.923C204.038 442.007 204.195 444.031 204.369 445.963C215.677 452.808 229.21 456.361 243.008 456.111C244.388 456.111 245.802 456.111 247.234 456.02C268.308 455.099 286.955 447.126 302.023 432.992C302.198 430.35 302.32 427.934 302.372 425.926V425.624C290.063 438.836 272.201 450.373 246.972 451.49Z" fill="#263238"/>
<path d="M282.642 364.816C281.682 364.076 280.687 363.306 279.569 362.611C266.265 353.989 255.806 353.989 252.96 355.212C247.415 358.722 242.164 362.567 237.246 366.719C236.747 368.571 236.745 370.498 237.242 372.352C237.738 374.205 238.719 375.935 240.11 377.409C249.137 387.27 278.522 425.08 286.204 416.866C293.887 408.651 291.896 386.047 283.341 366.311C283.131 365.797 282.852 365.299 282.642 364.816Z" fill="#145A31" stroke="#263238" stroke-linecap="round" stroke-linejoin="round"/>
<path d="M254.916 408.229C254.916 408.229 280.582 455.491 285.803 462.89C288.103 466.406 290.812 469.71 293.887 472.751C293.887 472.751 316.585 479.35 336.053 485.525C355.521 491.701 389.358 499.81 396.464 501.516C403.571 503.223 415.461 503.162 417.416 503.162C419.372 503.162 442.122 507.692 443.606 508.508C445.09 509.323 443.135 510.969 439.8 511.799C436.465 512.63 425.553 513.43 420.315 515.076C415.077 516.722 410.816 516.314 403.221 514.668C397.235 513.076 391.491 510.871 386.11 508.1C386.11 508.1 323.761 504.34 309.042 502.83C294.323 501.32 277.614 499.538 271.032 492.97C257.822 480.073 245.63 466.422 234.54 452.109C225.601 440.422 209.241 424.008 215.439 409.135" fill="white"/>
<path d="M254.916 408.229C254.916 408.229 280.582 455.491 285.803 462.89C288.103 466.406 290.812 469.71 293.887 472.751C293.887 472.751 316.585 479.35 336.053 485.525C355.521 491.701 389.358 499.81 396.464 501.516C403.571 503.223 415.461 503.162 417.416 503.162C419.372 503.162 442.122 507.692 443.606 508.508C445.09 509.323 443.135 510.969 439.8 511.799C436.465 512.63 425.553 513.43 420.315 515.076C415.077 516.722 410.816 516.314 403.221 514.668C397.235 513.076 391.491 510.871 386.11 508.1C386.11 508.1 323.761 504.34 309.042 502.83C294.323 501.32 277.614 499.538 271.032 492.97C257.822 480.073 245.63 466.422 234.54 452.109C225.601 440.422 209.241 424.008 215.439 409.135" stroke="#263238" stroke-linecap="round" stroke-linejoin="round"/>
<path d="M417.294 503.162C415.391 503.162 403.518 503.162 396.342 501.516C389.166 499.87 355.328 491.686 335.861 485.525C316.393 479.365 293.695 472.751 293.695 472.751C290.62 469.71 287.911 466.406 285.611 462.89C283.463 459.87 277.841 450.01 271.957 439.516C253.013 443.804 243.48 451.596 238.783 457.636C248.705 469.91 259.425 481.687 270.892 492.909C277.544 499.478 294.166 501.124 308.902 502.77C323.639 504.415 385.883 508.115 385.883 508.115C391.264 510.886 397.008 513.091 402.994 514.683C410.589 516.329 414.867 516.737 420.088 515.091C425.308 513.445 436.256 512.63 439.573 511.814C442.89 510.999 444.811 509.338 443.379 508.523C441.948 507.707 419.267 503.162 417.294 503.162Z" fill="white"/>
<mask id="mask2_8_346" style="mask-type:luminance" maskUnits="userSpaceOnUse" x="238" y="439" width="206" height="78">
<path d="M417.294 503.162C415.391 503.162 403.518 503.162 396.342 501.516C389.166 499.87 355.328 491.686 335.861 485.525C316.393 479.365 293.695 472.751 293.695 472.751C290.62 469.71 287.911 466.406 285.611 462.89C283.463 459.87 277.841 450.01 271.957 439.516C253.013 443.804 243.48 451.596 238.783 457.636C248.705 469.91 259.425 481.687 270.892 492.909C277.544 499.478 294.166 501.124 308.902 502.77C323.639 504.415 385.883 508.115 385.883 508.115C391.264 510.886 397.008 513.091 402.994 514.683C410.589 516.329 414.867 516.737 420.088 515.091C425.308 513.445 436.256 512.63 439.573 511.814C442.89 510.999 444.811 509.338 443.379 508.523C441.948 507.707 419.267 503.162 417.294 503.162Z" fill="white"/>
</mask>
<g mask="url(#mask2_8_346)">
<path opacity="0.15" d="M417.294 503.162C415.391 503.162 403.518 503.162 396.342 501.516C389.166 499.87 355.328 491.686 335.861 485.525C316.393 479.365 293.695 472.751 293.695 472.751C290.62 469.71 287.911 466.406 285.611 462.89C283.463 459.87 277.841 450.01 271.957 439.516C253.013 443.804 243.48 451.596 238.783 457.636C248.705 469.91 259.425 481.687 270.892 492.909C277.544 499.478 294.166 501.124 308.902 502.77C323.639 504.415 385.883 508.115 385.883 508.115C391.264 510.886 397.008 513.091 402.994 514.683C410.589 516.329 414.867 516.737 420.088 515.091C425.308 513.445 436.256 512.63 439.573 511.814C442.89 510.999 444.811 509.338 443.379 508.523C441.948 507.707 419.267 503.162 417.294 503.162Z" fill="black"/>
</g>
<path d="M417.294 503.162C415.391 503.162 403.518 503.162 396.342 501.516C389.166 499.87 355.328 491.686 335.861 485.525C316.393 479.365 293.695 472.751 293.695 472.751C290.62 469.71 287.911 466.406 285.611 462.89C283.463 459.87 277.841 450.01 271.957 439.516C253.013 443.804 243.48 451.596 238.783 457.636C248.705 469.91 259.425 481.687 270.892 492.909C277.544 499.478 294.166 501.124 308.902 502.77C323.639 504.415 385.883 508.115 385.883 508.115C391.264 510.886 397.008 513.091 402.994 514.683C410.589 516.329 414.867 516.737 420.088 515.091C425.308 513.445 436.256 512.63 439.573 511.814C442.89 510.999 444.811 509.338 443.379 508.523C441.948 507.707 419.267 503.162 417.294 503.162Z" stroke="#263238" stroke-linecap="round" stroke-linejoin="round"/>
<path d="M291.984 602.007C292.193 594.88 293.031 567.956 293.922 542.271C281.334 546.521 268.135 549.264 254.689 550.425C226.753 553.249 210.655 547.405 202.693 542.875C202.693 543.887 202.588 544.521 202.588 544.657C202.588 546.167 203.339 592.222 203.496 602.037L291.984 602.007Z" fill="#145A31" stroke="#263238" stroke-linecap="round" stroke-linejoin="round"/>
<path d="M269.722 598.579C265.392 584.37 275.868 566.25 260.748 556.843" stroke="#263238" stroke-linecap="round" stroke-linejoin="round"/>
<path d="M269.722 565.888L289.172 549.731" stroke="#263238" stroke-linecap="round" stroke-linejoin="round"/>
<path d="M220.956 565.993L220.45 598.579" stroke="#263238" stroke-linecap="round" stroke-linejoin="round"/>
<path d="M221.131 554.26L221.044 560.21" stroke="#263238" stroke-linecap="round" stroke-linejoin="round"/>
<path d="M299.09 288.954C306.818 290.725 313.647 294.666 318.505 300.158C321.8 303.804 324.034 308.082 325.018 312.63C327.34 324.861 319.378 328.636 321.945 334.193C324.512 339.75 327.078 342.634 325.018 345.307C322.958 347.979 316.55 348.417 315.52 348.644C314.49 348.87 312.429 359.078 308.326 363.532C304.223 367.987 289.819 362.868 289.819 362.868C289.819 362.868 283.917 371.535 282.119 374.42C280.32 377.304 283.865 394.638 281.333 402.415C278.801 410.191 272.865 401.751 261.551 389.535C250.237 377.319 245.103 367.307 245.627 363.97C246.151 360.633 255.126 352.857 256.679 349.973C258.233 347.089 258.984 345.745 258.216 343.087C257.448 340.429 248.456 329.497 248.456 315.53C248.456 301.562 261.289 288.199 278.26 287.081C285.276 286.683 292.319 287.316 299.09 288.954Z" fill="white"/>
<mask id="mask3_8_346" style="mask-type:luminance" maskUnits="userSpaceOnUse" x="245" y="286" width="81" height="120">
<path d="M299.09 288.954C306.818 290.725 313.647 294.666 318.505 300.158C321.8 303.804 324.034 308.082 325.018 312.63C327.34 324.861 319.378 328.636 321.945 334.193C324.512 339.75 327.078 342.634 325.018 345.307C322.958 347.979 316.55 348.417 315.52 348.644C314.49 348.87 312.429 359.078 308.326 363.532C304.223 367.987 289.819 362.868 289.819 362.868C289.819 362.868 283.917 371.535 282.119 374.42C280.32 377.304 283.865 394.638 281.333 402.415C278.801 410.191 272.865 401.751 261.551 389.535C250.237 377.319 245.103 367.307 245.627 363.97C246.151 360.633 255.126 352.857 256.679 349.973C258.233 347.089 258.984 345.745 258.216 343.087C257.448 340.429 248.456 329.497 248.456 315.53C248.456 301.562 261.289 288.199 278.26 287.081C285.276 286.683 292.319 287.316 299.09 288.954Z" fill="white"/>
</mask>
<g mask="url(#mask3_8_346)">
<path opacity="0.15" d="M299.09 288.954C306.818 290.725 313.647 294.666 318.505 300.158C321.8 303.804 324.034 308.082 325.018 312.63C327.34 324.861 319.378 328.636 321.945 334.193C324.512 339.75 327.078 342.634 325.018 345.307C322.958 347.979 316.55 348.417 315.52 348.644C314.49 348.87 312.429 359.078 308.326 363.532C304.223 367.987 289.819 362.868 289.819 362.868C289.819 362.868 283.917 371.535 282.119 374.42C280.32 377.304 283.865 394.638 281.333 402.415C278.801 410.191 272.865 401.751 261.551 389.535C250.237 377.319 245.103 367.307 245.627 363.97C246.151 360.633 255.126 352.857 256.679 349.973C258.233 347.089 258.984 345.745 258.216 343.087C257.448 340.429 248.456 329.497 248.456 315.53C248.456 301.562 261.289 288.199 278.26 287.081C285.276 286.683 292.319 287.316 299.09 288.954Z" fill="black"/>
</g>
<path d="M299.09 288.954C306.818 290.725 313.647 294.666 318.505 300.158C321.8 303.804 324.034 308.082 325.018 312.63C327.34 324.861 319.378 328.636 321.945 334.193C324.512 339.75 327.078 342.634 325.018 345.307C322.958 347.979 316.55 348.417 315.52 348.644C314.49 348.87 312.429 359.078 308.326 363.532C304.223 367.987 289.819 362.868 289.819 362.868C289.819 362.868 283.917 371.535 282.119 374.42C280.32 377.304 283.865 394.638 281.333 402.415C278.801 410.191 272.865 401.751 261.551 389.535C250.237 377.319 245.103 367.307 245.627 363.97C246.151 360.633 255.126 352.857 256.679 349.973C258.233 347.089 258.984 345.745 258.216 343.087C257.448 340.429 248.456 329.497 248.456 315.53C248.456 301.562 261.289 288.199 278.26 287.081C285.276 286.683 292.319 287.316 299.09 288.954Z" stroke="#263238" stroke-linecap="round" stroke-linejoin="round"/>
<path d="M302.163 299.086C308.344 296.458 312.726 296.534 315.59 297.274C311.041 293.283 305.346 290.411 299.09 288.954C292.319 287.316 285.276 286.683 278.26 287.081C261.289 288.199 248.456 301.532 248.456 315.53C248.456 329.527 257.448 340.414 258.216 343.087C258.491 343.967 258.557 344.887 258.408 345.79C270.63 347.889 274.628 342.604 274.628 342.604C273.214 342.757 271.779 342.66 270.41 342.317C269.041 341.974 267.767 341.394 266.667 340.611C263.052 337.938 263.052 327.715 267.435 323.049C271.817 318.383 276.165 324.831 276.165 328.606C276.165 332.381 278.225 335.492 280.285 335.054C282.346 334.616 281.822 330.388 282.59 327.715C283.358 325.043 292.35 321.056 294.411 318.836C296.471 316.617 293.38 314.608 290.046 311.286C286.711 307.964 289.557 304.416 302.163 299.086Z" fill="#263238" stroke="#263238" stroke-linecap="round" stroke-linejoin="round"/>
<path d="M274.122 343.298C274.122 343.298 274.122 349.535 278.505 353.521" stroke="#263238" stroke-linecap="round" stroke-linejoin="round"/>
<path d="M314.14 332.049C311.966 331.253 309.593 330.946 307.244 331.158" stroke="#263238" stroke-linecap="round" stroke-linejoin="round"/>
<path d="M317.929 326.689C317.929 326.689 314.14 321.026 306.894 325.496" stroke="#263238" stroke-linecap="round" stroke-linejoin="round"/>
<path d="M309.042 351.724C307.467 351.841 305.893 351.493 304.577 350.736C303.261 349.979 302.28 348.858 301.796 347.557" stroke="#263238" stroke-linecap="round" stroke-linejoin="round"/>
<path d="M259.194 416.201L255.911 410.161C234.802 410.478 222.44 417.288 215.456 423.751C216.21 425.9 217.156 427.995 218.285 430.018C223.785 423.842 235.57 415.763 259.194 416.201Z" fill="#263238"/>
<path d="M266.509 429.474L263.227 423.525C243.619 424.431 230.437 430.682 222.353 436.42C223.575 438.172 224.885 439.893 226.194 441.569C233.65 436.133 246.623 429.791 266.509 429.474Z" fill="#263238"/>
<path d="M493.786 469.821C495.986 475.514 497.453 495.763 497.453 506.529C497.453 515.499 490.818 580.731 488.618 602.007H587.826C589.013 581.244 592.558 518.851 592.558 510.954C592.558 501.456 588.891 462.543 593.658 448.938C598.424 435.333 603.889 399.591 595.404 388.538C586.918 377.485 555.246 371.143 545.66 368.289C536.074 365.435 521.88 363.865 514.93 366.779C514.93 366.779 495.916 375.96 484.201 385.443C472.485 394.925 467.387 409.497 469.569 421.199C471.752 432.902 491.586 464.129 493.786 469.821Z" fill="white" stroke="#263238" stroke-linecap="round" stroke-linejoin="round"/>
<path d="M579.986 378.572C575.71 376.864 571.333 375.352 566.874 374.042C550.723 409.67 525.316 441.609 492.616 467.39C493.158 468.432 493.559 469.278 493.786 469.852C494.886 473.554 495.599 477.334 495.916 481.146C533.273 453.459 562.15 418.226 579.986 378.572Z" fill="#263238"/>
<path d="M599.332 419.78C600.19 412.239 600.026 404.638 598.843 397.13C578.467 426.892 543.233 472.283 497.418 507.813C497.296 510.939 496.842 517.039 496.161 524.77C540.754 492.849 576.023 451.581 599.332 419.78Z" fill="#263238"/>
<path d="M587.826 602.007C588.664 587.224 590.707 551.361 591.807 529.059C543.53 537.047 509.588 529.451 496.109 525.359C494.048 548.87 490.19 586.741 488.618 602.007H587.826Z" fill="#263238" stroke="#263238" stroke-linecap="round" stroke-linejoin="round"/>
<path d="M527.432 404.438C540.681 404.438 551.422 395.454 551.422 384.371C551.422 373.287 540.681 364.303 527.432 364.303C514.182 364.303 503.442 373.287 503.442 384.371C503.442 395.454 514.182 404.438 527.432 404.438Z" fill="#145A31" stroke="#263238" stroke-linecap="round" stroke-linejoin="round"/>
<path d="M505.502 359.093C505.502 359.093 509.518 371.43 509.518 378.723C509.518 386.016 518.667 402.777 533.665 395.182C548.663 387.587 540.981 370.192 538.414 364.801C536.593 360.683 535.128 356.453 534.032 352.147C534.032 352.147 529.265 359.697 520.064 360.059C515.181 360.311 510.282 359.986 505.502 359.093Z" fill="white" stroke="#263238" stroke-linecap="round" stroke-linejoin="round"/>
<path d="M480.761 314.306C480.761 314.306 478.229 319.758 481.39 324.121C484.55 328.485 488.88 334.465 488.88 334.465L488.251 310.501C488.251 310.501 482.018 306.137 480.761 314.306Z" fill="#263238" stroke="#263238" stroke-linecap="round" stroke-linejoin="round"/>
<path d="M488.88 329.014C488.88 329.014 483.834 330.66 486.348 337.727C488.863 344.793 492.651 342.634 492.651 342.634L488.88 329.014Z" fill="white" stroke="#263238" stroke-linecap="round" stroke-linejoin="round"/>
<path d="M484.271 316.707C484.271 316.707 488.67 336.337 491.255 346.122C493.839 355.907 507.719 364.786 515.035 366.688C522.351 368.591 531.867 361.63 534.067 357.523C536.266 353.415 537.349 344.235 537.349 344.235C537.349 344.235 545.398 341.381 546.079 334.103C546.76 326.824 544.612 324.62 540.23 323.668L536.93 322.4C536.93 322.4 538.763 310.698 534.014 303.419C529.265 296.141 512.434 305.639 503.651 307.844C494.869 310.048 483.171 309.429 484.271 316.707Z" fill="white" stroke="#263238" stroke-linecap="round" stroke-linejoin="round"/>
<path d="M505.502 330.947C505.502 330.947 503.756 342.332 506.218 343.283C508.68 344.235 513.534 342.015 514.634 341.698" stroke="#263238" stroke-linecap="round" stroke-linejoin="round"/>
<path d="M512.451 350.32C512.451 350.32 522.683 351.588 526.716 341.456" stroke="#263238" stroke-linecap="round" stroke-linejoin="round"/>
<path d="M493.053 328.41C493.868 327.318 495.018 326.445 496.375 325.888C497.732 325.33 499.242 325.111 500.735 325.254" stroke="#263238" stroke-linecap="round" stroke-linejoin="round"/>
<path d="M510.618 323.669C510.618 323.669 517.933 320.498 522.316 323.986" stroke="#263238" stroke-linecap="round" stroke-linejoin="round"/>
<path d="M499.867 336.625C500.865 336.475 501.392 334.955 501.046 333.229C500.699 331.504 499.609 330.227 498.612 330.377C497.614 330.527 497.086 332.047 497.433 333.772C497.78 335.498 498.87 336.775 499.867 336.625Z" fill="#263238"/>
<path d="M515.969 333.785C516.966 333.635 517.494 332.114 517.147 330.389C516.8 328.664 515.711 327.386 514.713 327.536C513.715 327.686 513.188 329.207 513.535 330.932C513.881 332.657 514.971 333.935 515.969 333.785Z" fill="#263238"/>
<path d="M525.983 308.161C516.274 312.101 506.091 315.099 495.62 317.1C479.521 319.939 472.206 316.783 472.922 309.822C473.637 302.861 494.502 287.67 513.516 287.67C532.53 287.67 539.13 295.22 540.23 303.178C540.83 310.023 540.83 316.898 540.23 323.744L536.93 327.851C536.93 327.851 537.768 324.65 532.53 322.083C527.292 319.516 523.416 314.805 525.983 308.161Z" fill="#263238" stroke="#263238" stroke-linecap="round" stroke-linejoin="round"/>
<path d="M627.792 330.781C631.371 333.151 627.163 343.057 638.966 351C666.134 369.271 681.848 381.637 684.746 408.787C687.924 438.383 669.539 449.889 675.248 459.75C680.957 469.61 688.553 481.116 676.505 489.95C664.458 498.783 644.833 506.394 628.368 485.571C611.903 464.748 603.016 418.723 596.05 393.461C589.083 368.198 577.682 356.209 579.567 345.246C581.418 334.676 591.388 327.126 603.313 325.299C607.609 324.65 612.016 324.803 616.238 325.749C620.46 326.694 624.4 328.41 627.792 330.781Z" fill="#263238" stroke="#263238" stroke-linecap="round" stroke-linejoin="round"/>
<path d="M595.072 435.982L544.298 468.1C544.298 468.1 462.987 493.226 458.203 494.51C453.419 495.793 430.616 499.281 425.832 501.501C421.048 503.721 411.864 518.368 410.38 521.871C410.071 522.361 409.954 522.924 410.046 523.476C410.138 524.027 410.434 524.539 410.89 524.933C411.346 525.328 411.937 525.584 412.575 525.663C413.214 525.743 413.864 525.641 414.431 525.374C415.531 524.408 426.199 515.499 429.516 515.182C432.833 514.865 435.767 514.548 435.767 514.548C435.767 514.548 427.299 520.92 426.932 522.822C426.565 524.725 428.416 524.091 430.616 523.14C432.816 522.188 441.284 519.636 444.584 514.548C447.884 509.459 450.835 506.59 456.352 504.687C461.869 502.785 533.874 489.285 546.76 487.383C559.645 485.48 606.002 461.396 608.219 461.078C610.437 460.761 602.073 435.982 595.072 435.982Z" fill="white" stroke="#263238" stroke-linecap="round" stroke-linejoin="round"/>
<path d="M585.154 477.054C585.608 478.232 584.246 494.797 583.321 523.592C582.623 545.684 576.564 584.944 573.77 602.007H670.831C671.529 584.702 672.402 545.125 666.78 528.711C659.482 507.42 651.275 503.041 648.552 493.619C645.828 484.197 641.707 432.086 634.863 412.366C628.019 392.645 607.503 380.807 604.308 376.473C601.113 372.139 591.073 346.892 591.073 346.892L573.753 359.516C573.753 359.516 586.516 377.258 588.35 382.785C590.183 388.312 576.023 401.313 568.742 414.737C561.461 428.16 560.012 438.791 566.455 447.066C572.897 455.34 584.7 475.861 585.154 477.054Z" fill="#145A31"/>
<mask id="mask4_8_346" style="mask-type:luminance" maskUnits="userSpaceOnUse" x="562" y="346" width="110" height="257">
<path d="M585.154 477.054C585.608 478.232 584.246 494.797 583.321 523.592C582.623 545.684 576.564 584.944 573.77 602.007H670.831C671.529 584.702 672.402 545.125 666.78 528.711C659.482 507.42 651.275 503.041 648.552 493.619C645.828 484.197 641.707 432.086 634.863 412.366C628.019 392.645 607.503 380.807 604.308 376.473C601.113 372.139 591.073 346.892 591.073 346.892L573.753 359.516C573.753 359.516 586.516 377.258 588.35 382.785C590.183 388.312 576.023 401.313 568.742 414.737C561.461 428.16 560.012 438.791 566.455 447.066C572.897 455.34 584.7 475.861 585.154 477.054Z" fill="white"/>
</mask>
<g mask="url(#mask4_8_346)">
<path d="M599.995 558.096L615.901 561.116L631.807 558.096L647.714 561.116L663.62 558.096L670.988 559.485L670.831 556.374L663.62 555L647.714 558.02L631.807 555L615.901 558.02L599.995 555L584.107 558.02L580.283 557.296C580.161 558.307 580.039 559.304 579.899 560.316L584.107 561.116L599.995 558.096Z" fill="white"/>
<path d="M617.56 454.752L601.654 457.772L585.748 454.752L573.317 457.107L575.063 459.87L585.766 457.847L601.672 460.867L617.578 457.847L633.484 460.867L643.541 458.949C643.401 457.953 643.279 456.941 643.139 455.929L633.484 457.772L617.56 454.752Z" fill="white"/>
<path d="M599.995 581.093L615.901 584.113L631.807 581.093L647.714 584.113L663.62 581.093L671.319 582.603C671.319 581.592 671.319 580.565 671.319 579.583L663.602 578.073L647.696 581.093L631.79 578.073L615.884 581.093L599.978 578.073L584.089 581.093L577.21 579.78C577.07 580.806 576.913 581.803 576.774 582.8L584.089 584.189L599.995 581.093Z" fill="white"/>
<path d="M671.18 590.954L663.62 589.519L647.714 592.539L631.807 589.519L615.901 592.539L599.995 589.519L584.107 592.539L575.534 590.908C575.377 591.935 575.22 592.947 575.08 593.928L584.107 595.635L599.995 592.615L615.901 595.635L631.807 592.615L647.714 595.635L663.62 592.615L671.11 594.049C671.127 593.037 671.162 592.011 671.18 590.954Z" fill="white"/>
<path d="M564.08 425.261L569.842 426.348L585.748 423.328L601.654 426.348L617.56 423.328L633.466 426.348L638.233 425.442C638.023 424.431 637.814 423.434 637.604 422.422L633.466 423.208L617.56 420.188L601.654 423.208L585.748 420.188L569.842 423.208L565.128 422.317C564.744 423.333 564.394 424.315 564.08 425.261Z" fill="white"/>
<path d="M617.56 431.739L601.654 434.759L585.748 431.739L569.842 434.759L562.439 433.355C562.369 434.386 562.369 435.419 562.439 436.45L569.842 437.855L585.748 434.835L601.654 437.855L617.56 434.835L633.466 437.855L640.276 436.556C640.101 435.544 639.944 434.548 639.769 433.536L633.466 434.729L617.56 431.739Z" fill="white"/>
<path d="M617.56 443.245L601.654 446.265L585.748 443.245L569.842 446.265L565.302 445.405C565.652 445.963 566.036 446.522 566.455 447.066C566.874 447.609 567.38 448.289 567.869 448.983L569.842 449.361L585.748 446.341L601.654 449.361L617.56 446.341L633.466 449.361L641.987 447.745C641.847 446.733 641.69 445.737 641.55 444.725L633.466 446.235L617.56 443.245Z" fill="white"/>
<path d="M599.996 569.602L615.902 572.622L631.808 569.602L647.714 572.622L663.62 569.602L671.302 571.112V568.017L663.672 566.507L647.766 569.527L631.86 566.507L615.954 569.527L600.048 566.507L584.159 569.527L578.921 568.515L578.502 571.535L584.212 572.622L599.996 569.602Z" fill="white"/>
</g>
<path d="M585.154 477.054C585.608 478.232 584.246 494.797 583.321 523.592C582.623 545.684 576.564 584.944 573.77 602.007H670.831C671.529 584.702 672.402 545.125 666.78 528.711C659.482 507.42 651.275 503.041 648.552 493.619C645.828 484.197 641.707 432.086 634.863 412.366C628.019 392.645 607.503 380.807 604.308 376.473C601.113 372.139 591.073 346.892 591.073 346.892L573.753 359.516C573.753 359.516 586.516 377.258 588.35 382.785C590.183 388.312 576.023 401.313 568.742 414.737C561.461 428.16 560.012 438.791 566.455 447.066C572.897 455.34 584.7 475.861 585.154 477.054Z" stroke="#263238" stroke-linecap="round" stroke-linejoin="round"/>
<path d="M573.736 451.581C573.736 451.581 579.602 461.743 599.192 457.787" stroke="#263238" stroke-linecap="round" stroke-linejoin="round"/>
<path d="M627.251 517.054C627.251 517.054 597.883 548.1 584.823 572.924" stroke="#263238" stroke-linecap="round" stroke-linejoin="round"/>
<path d="M595.927 542.468C595.927 542.468 583.513 562.218 580.213 574.631" stroke="#263238" stroke-linecap="round" stroke-linejoin="round"/>
<path d="M579.34 411.671C588.821 407.141 600.921 387.511 606.194 383.887L609.791 381.396C607.781 379.914 605.945 378.265 604.308 376.473C601.113 372.139 591.073 346.892 591.073 346.892L573.753 359.516C573.753 359.516 586.516 377.258 588.35 382.785C589.956 387.662 579.113 398.398 571.536 410.071C572.426 412.23 574.521 413.982 579.34 411.671Z" fill="white" stroke="#263238" stroke-linecap="round" stroke-linejoin="round"/>
<path d="M558.458 316.526C556.436 320.672 555.425 325.134 555.49 329.633C555.804 333.619 556.799 336.775 554.949 340.716C553.866 342.981 550.2 345.865 550.706 348.478C551.16 350.833 558.004 351.634 558.004 351.634C558.004 351.634 564.849 370.161 568.48 370.554C572.112 370.947 580.336 369.044 590.812 361.494C601.288 353.944 588.542 326.764 579.41 319.682C570.279 312.6 563.015 311.785 558.458 316.526Z" fill="white" stroke="#263238" stroke-linecap="round" stroke-linejoin="round"/>
<path d="M561.566 341.245C562.222 341.245 562.753 339.947 562.753 338.346C562.753 336.744 562.222 335.446 561.566 335.446C560.91 335.446 560.379 336.744 560.379 338.346C560.379 339.947 560.91 341.245 561.566 341.245Z" fill="#263238"/>
<path d="M558.406 331.687C558.406 331.687 559.593 327.579 564.342 330.66" stroke="#263238" stroke-linecap="round" stroke-linejoin="round"/>
<path d="M560.78 355.605C560.78 355.605 563.941 356.3 567.502 352.585" stroke="#263238" stroke-linecap="round" stroke-linejoin="round"/>
<path d="M568.498 295.613C568.498 295.613 551.614 296.02 548.873 305.473C546.131 314.926 558.458 323.231 567.118 327.172C575.779 331.113 583.531 337.425 583.531 344.129C583.531 350.833 584.002 358.731 590.375 365.828C596.748 372.925 611.327 378.844 622.763 378.451C634.2 378.059 621.855 354.85 628.228 338.24C634.601 321.63 626.482 305.111 613.632 298.014C600.781 290.917 568.498 295.613 568.498 295.613Z" fill="#263238" stroke="#263238" stroke-linecap="round" stroke-linejoin="round"/>
<path d="M671.581 438.821C671.429 440.89 671.055 442.942 670.464 444.952" stroke="white" stroke-linecap="round" stroke-linejoin="round"/>
<path d="M564.622 320.12C567.764 324.65 573.718 329.482 584.91 332.2C609.354 338.24 618.66 352.842 618.66 365.42C618.66 377.998 619.83 387.058 643.104 397.13C649.966 400.098 655.98 404.346 660.711 409.569C665.443 414.792 668.774 420.858 670.464 427.33" stroke="white" stroke-linecap="round" stroke-linejoin="round"/>
<path d="M561.042 310.048C561.047 310.925 561.146 311.8 561.339 312.661" stroke="white" stroke-linecap="round" stroke-linejoin="round"/>
<path d="M593.64 310.048C593.64 310.048 622.746 322.642 622.152 339.75C621.559 356.858 623.322 372.97 641.358 382.528C659.394 392.087 678.024 398.142 684.432 417.258" stroke="white" stroke-linecap="round" stroke-linejoin="round"/>
<path d="M609.878 401.66C609.878 401.66 602.143 404.197 598.11 417.243C594.076 430.29 610.611 453.196 613.195 463.389C615.779 473.581 618.346 489.149 618.346 489.149C618.346 489.149 560.571 529.919 552.12 536.246C543.669 542.573 539.235 546.741 539.235 546.741C539.235 546.741 518.283 562.656 516.432 565.842C514.581 569.028 509.448 585.563 511.281 586.197C513.114 586.831 516.432 579.84 516.432 578.572C516.432 577.303 520.098 570.297 520.098 570.297C520.098 570.297 517.165 586.484 517.165 587.39C517.165 588.296 520.098 587.39 520.465 586.106C520.832 584.823 524.883 571.475 524.883 571.475C524.883 571.475 522.683 586.424 524.149 588.085C525.616 589.746 528.2 578.541 528.2 578.541L531.133 569.632C531.133 569.632 530.4 585.216 531.884 585.85C533.368 586.484 536.668 570.584 536.668 570.584C536.668 570.584 543.285 559.123 545.852 555.303C547.316 553.224 548.433 550.977 549.169 548.628C549.169 548.628 583.391 532.396 604.727 523.487C626.063 514.578 644.099 498.028 646.299 495.174C648.499 492.32 643.715 452.215 640.049 435.031C636.382 417.847 628.647 397.13 609.878 401.66Z" fill="white" stroke="#263238" stroke-linecap="round" stroke-linejoin="round"/>
<path d="M490.347 381.154C490.347 381.154 477.182 388.9 466.653 396.254C456.125 403.608 457.697 418.119 457.697 421.305C457.697 424.491 457.173 439.063 457.173 439.063L449.263 453.634C449.263 453.634 437.164 463.208 434.527 465.488C431.891 467.768 416.631 493.71 416.631 493.71L412.947 498.24L433.008 500.474C440.498 493.251 448.784 486.677 457.749 480.844C470.861 472.63 481.896 449.98 482.437 447.186C484.662 439.556 486.232 431.793 487.134 423.963" fill="white"/>
<path d="M490.347 381.154C490.347 381.154 477.182 388.9 466.653 396.254C456.125 403.608 457.697 418.119 457.697 421.305C457.697 424.491 457.173 439.063 457.173 439.063L449.263 453.634C449.263 453.634 437.164 463.208 434.527 465.488C431.891 467.768 416.631 493.71 416.631 493.71L412.947 498.24L433.008 500.474C440.498 493.251 448.784 486.677 457.749 480.844C470.861 472.63 481.896 449.98 482.437 447.186C484.662 439.556 486.232 431.793 487.134 423.963" stroke="#263238" stroke-linecap="round" stroke-linejoin="round"/>
<path d="M483.642 442.324C474.79 429.761 462.69 431.392 457.312 432.962C457.19 436.284 457.103 439.002 457.103 439.002L449.193 453.574C449.193 453.574 437.094 463.147 434.457 465.427C431.821 467.707 416.561 493.649 416.561 493.649L412.877 498.179L433.008 500.474C440.498 493.251 448.784 486.677 457.749 480.844C470.861 472.63 481.896 449.98 482.437 447.186C482.629 446.265 483.118 444.574 483.642 442.324Z" fill="white" stroke="#263238" stroke-linecap="round" stroke-linejoin="round"/>
<path d="M424.138 487.73C424.138 487.73 411.061 496.971 408.424 499.901C405.788 502.83 403.728 520.059 404.775 521.312C405.823 522.566 413.139 525.933 416.281 522.988C419.424 520.044 430.93 505.85 430.93 505.85C430.93 505.85 422.2 516.058 428.434 515.484C434.667 514.91 438.246 506.605 441.913 502.83C445.579 499.055 445.055 498.632 441.913 493.181L438.787 487.73" fill="white"/>
<path d="M424.138 487.73C424.138 487.73 411.061 496.971 408.424 499.901C405.788 502.83 403.728 520.059 404.775 521.312C405.823 522.566 413.139 525.933 416.281 522.988C419.424 520.044 430.93 505.85 430.93 505.85C430.93 505.85 422.2 516.058 428.434 515.484C434.667 514.91 438.246 506.605 441.913 502.83C445.579 499.055 445.055 498.632 441.913 493.181L438.787 487.73" stroke="#263238" stroke-linecap="round" stroke-linejoin="round"/>
<path d="M404.793 521.297C404.793 521.297 411.445 501.667 414.099 500.157" stroke="#263238" stroke-linecap="round" stroke-linejoin="round"/>
<path d="M407.918 522.732C407.918 522.732 415.635 504.28 419.616 500.459" stroke="#263238" stroke-linecap="round" stroke-linejoin="round"/>
<path d="M412.056 524.045C412.056 524.045 420.419 505.925 425.902 501.531" stroke="#263238" stroke-linecap="round" stroke-linejoin="round"/>
<path d="M430.93 505.85C430.93 505.85 435.383 502.437 436.064 500.384Z" fill="white"/>
<path d="M430.93 505.85C430.93 505.85 435.383 502.437 436.064 500.384" stroke="#263238" stroke-linecap="round" stroke-linejoin="round"/>
<path d="M108.706 602.007H762.129" stroke="#263238" stroke-linecap="round" stroke-linejoin="round"/>
</svg>
