<svg width="415" height="449" viewBox="0 0 415 449" fill="none" xmlns="http://www.w3.org/2000/svg">
<path d="M0.381718 187.88C0.381718 187.88 -7.56928 267.88 49.1043 334.21C105.778 400.54 193.431 422.76 264.136 442.73C334.841 462.7 395.169 432 411.781 370C428.393 308 376.294 277.9 356.23 199.18C336.165 120.46 341.9 97.1799 285.141 39.4599C228.381 -18.2601 126.888 -11.3501 65.5051 54.3299C4.12224 120.01 0.381718 187.88 0.381718 187.88Z" fill="#145A31"/>
<path opacity="0.7" d="M0.381718 187.88C0.381718 187.88 -7.56928 267.88 49.1043 334.21C105.778 400.54 193.431 422.76 264.136 442.73C334.841 462.7 395.169 432 411.781 370C428.393 308 376.294 277.9 356.23 199.18C336.165 120.46 341.9 97.1799 285.141 39.4599C228.381 -18.2601 126.888 -11.3501 65.5051 54.3299C4.12224 120.01 0.381718 187.88 0.381718 187.88Z" fill="white"/>
<path d="M288.71 58.0701H128.66C120.641 58.0701 114.14 64.5709 114.14 72.5901V412.55C114.14 420.569 120.641 427.07 128.66 427.07H288.71C296.729 427.07 303.23 420.569 303.23 412.55V72.5901C303.23 64.5709 296.729 58.0701 288.71 58.0701Z" fill="#263238"/>
<mask id="mask0_8_711" style="mask-type:luminance" maskUnits="userSpaceOnUse" x="114" y="58" width="190" height="370">
<path d="M288.71 58.0701H128.66C120.641 58.0701 114.14 64.5709 114.14 72.5901V412.55C114.14 420.569 120.641 427.07 128.66 427.07H288.71C296.729 427.07 303.23 420.569 303.23 412.55V72.5901C303.23 64.5709 296.729 58.0701 288.71 58.0701Z" fill="white"/>
</mask>
<g mask="url(#mask0_8_711)">
<path opacity="0.2" d="M130.43 58.0701C128.29 58.0701 126.171 58.4918 124.194 59.311C122.217 60.1303 120.421 61.3311 118.908 62.8448C117.395 64.3586 116.195 66.1555 115.377 68.1331C114.559 70.1106 114.139 72.23 114.14 74.3701V410.77C114.137 413.154 114.658 415.51 115.668 417.671C116.677 419.831 118.149 421.743 119.98 423.27L230.3 58.0701H130.43Z" fill="white"/>
<path d="M215.1 416.4C215.1 415.128 214.723 413.884 214.016 412.827C213.309 411.769 212.304 410.945 211.128 410.458C209.953 409.972 208.659 409.845 207.412 410.094C206.164 410.343 205.019 410.957 204.12 411.857C203.221 412.757 202.609 413.904 202.362 415.152C202.115 416.4 202.244 417.693 202.732 418.868C203.221 420.042 204.046 421.046 205.105 421.751C206.164 422.457 207.408 422.832 208.68 422.83C209.524 422.831 210.361 422.666 211.141 422.343C211.921 422.02 212.63 421.546 213.226 420.949C213.823 420.352 214.295 419.642 214.617 418.861C214.938 418.081 215.103 417.244 215.1 416.4Z" stroke="white" stroke-linecap="round" stroke-linejoin="round"/>
</g>
<path d="M288.71 58.0701H128.66C120.641 58.0701 114.14 64.5709 114.14 72.5901V412.55C114.14 420.569 120.641 427.07 128.66 427.07H288.71C296.729 427.07 303.23 420.569 303.23 412.55V72.5901C303.23 64.5709 296.729 58.0701 288.71 58.0701Z" stroke="#263238" stroke-linecap="round" stroke-linejoin="round"/>
<path d="M294.81 83.1301H122.54V405.17H294.81V83.1301Z" fill="white" stroke="#263238" stroke-linecap="round" stroke-linejoin="round"/>
<path d="M288.95 86.47H274.67V94.3H288.95V86.47Z" stroke="#263238" stroke-width="0.821067" stroke-linecap="round" stroke-linejoin="round"/>
<path d="M285.81 86.47H274.67V94.3H285.81V86.47Z" fill="#263238" stroke="#263238" stroke-width="0.725073" stroke-linecap="round" stroke-linejoin="round"/>
<path d="M290.93 88.6602H288.92V92.1102H290.93V88.6602Z" fill="#263238" stroke="#263238" stroke-width="0.725073" stroke-linecap="round" stroke-linejoin="round"/>
<path d="M129.04 88.9001H126.42V93.3901H129.04V88.9001Z" fill="#263238" stroke="#263238" stroke-width="0.883086" stroke-linecap="round" stroke-linejoin="round"/>
<path d="M133.16 87.3201H130.54V93.3901H133.16V87.3201Z" fill="#263238" stroke="#263238" stroke-width="0.883086" stroke-linecap="round" stroke-linejoin="round"/>
<path d="M137.27 85.46H134.65V93.39H137.27V85.46Z" fill="#263238" stroke="#263238" stroke-width="0.883086" stroke-linecap="round" stroke-linejoin="round"/>
<path d="M290.74 98.6602H125.32V111.1H290.74V98.6602Z" fill="#145A31"/>
<path d="M280.84 275.71H230C228.334 275.71 226.737 276.372 225.559 277.549C224.382 278.727 223.72 280.324 223.72 281.99V288.23L211.16 293.88L223.72 297.25V301.15C223.72 302.815 224.382 304.413 225.559 305.591C226.737 306.768 228.334 307.43 230 307.43H280.89C282.556 307.43 284.153 306.768 285.331 305.591C286.508 304.413 287.17 302.815 287.17 301.15V282C287.171 281.17 287.008 280.348 286.69 279.582C286.372 278.816 285.905 278.12 285.317 277.535C284.728 276.95 284.029 276.488 283.261 276.174C282.493 275.861 281.67 275.703 280.84 275.71Z" fill="white" stroke="#263238" stroke-miterlimit="10"/>
<path d="M246.52 292.08C246.52 292.604 246.364 293.117 246.073 293.553C245.781 293.989 245.367 294.329 244.882 294.529C244.397 294.729 243.864 294.781 243.349 294.678C242.835 294.575 242.363 294.322 241.993 293.95C241.622 293.579 241.371 293.105 241.27 292.591C241.169 292.076 241.222 291.543 241.425 291.059C241.627 290.575 241.968 290.162 242.405 289.872C242.842 289.582 243.355 289.428 243.88 289.43C244.228 289.43 244.572 289.499 244.893 289.632C245.214 289.765 245.505 289.961 245.75 290.207C245.996 290.453 246.19 290.745 246.322 291.067C246.454 291.388 246.521 291.732 246.52 292.08Z" fill="#263238"/>
<path d="M258.08 292.08C258.078 292.602 257.922 293.111 257.63 293.544C257.339 293.977 256.926 294.314 256.443 294.512C255.961 294.71 255.43 294.761 254.919 294.658C254.407 294.555 253.938 294.303 253.57 293.933C253.202 293.564 252.951 293.093 252.85 292.581C252.749 292.069 252.802 291.539 253.002 291.057C253.202 290.576 253.54 290.164 253.974 289.874C254.408 289.585 254.918 289.43 255.44 289.43C255.788 289.43 256.132 289.499 256.453 289.632C256.774 289.765 257.065 289.96 257.31 290.207C257.556 290.453 257.75 290.745 257.882 291.067C258.014 291.388 258.081 291.732 258.08 292.08Z" fill="#263238"/>
<path d="M269.65 292.08C269.65 292.604 269.495 293.116 269.203 293.552C268.912 293.988 268.498 294.328 268.014 294.528C267.53 294.729 266.997 294.781 266.483 294.679C265.969 294.577 265.497 294.324 265.126 293.954C264.756 293.583 264.503 293.111 264.401 292.597C264.299 292.083 264.351 291.55 264.552 291.066C264.752 290.582 265.092 290.168 265.528 289.877C265.964 289.585 266.476 289.43 267 289.43C267.703 289.43 268.377 289.709 268.874 290.206C269.371 290.703 269.65 291.377 269.65 292.08Z" fill="#263238"/>
<path d="M280.84 125.71H230C228.336 125.71 226.74 126.37 225.563 127.546C224.385 128.721 223.723 130.316 223.72 131.98V138.23L211.16 143.88L223.72 147.25V151.15C223.72 152.815 224.382 154.413 225.559 155.591C226.737 156.768 228.334 157.43 230 157.43H280.89C282.556 157.43 284.153 156.768 285.331 155.591C286.508 154.413 287.17 152.815 287.17 151.15V132C287.171 131.17 287.008 130.348 286.69 129.582C286.372 128.816 285.905 128.12 285.317 127.535C284.728 126.95 284.029 126.488 283.261 126.174C282.493 125.861 281.67 125.703 280.84 125.71Z" fill="white" stroke="#263238" stroke-miterlimit="10"/>
<path d="M246.52 142.08C246.52 142.605 246.364 143.117 246.073 143.553C245.781 143.989 245.367 144.329 244.882 144.529C244.397 144.729 243.864 144.781 243.349 144.678C242.835 144.575 242.363 144.322 241.993 143.95C241.622 143.579 241.371 143.106 241.27 142.591C241.169 142.076 241.222 141.543 241.425 141.059C241.627 140.575 241.968 140.162 242.405 139.872C242.842 139.582 243.355 139.428 243.88 139.43C244.228 139.43 244.572 139.499 244.893 139.632C245.214 139.765 245.505 139.961 245.75 140.207C245.996 140.453 246.19 140.745 246.322 141.067C246.454 141.388 246.521 141.732 246.52 142.08Z" fill="#263238"/>
<path d="M258.08 142.08C258.078 142.602 257.922 143.111 257.63 143.544C257.339 143.977 256.926 144.314 256.443 144.512C255.961 144.71 255.43 144.761 254.919 144.658C254.407 144.555 253.938 144.303 253.57 143.933C253.202 143.564 252.951 143.093 252.85 142.581C252.749 142.069 252.802 141.539 253.002 141.057C253.202 140.576 253.54 140.164 253.974 139.874C254.408 139.585 254.918 139.43 255.44 139.43C255.788 139.43 256.132 139.499 256.453 139.632C256.774 139.765 257.065 139.961 257.31 140.207C257.556 140.453 257.75 140.745 257.882 141.067C258.014 141.388 258.081 141.732 258.08 142.08Z" fill="#263238"/>
<path d="M269.65 142.08C269.65 142.604 269.495 143.116 269.203 143.552C268.912 143.988 268.498 144.328 268.014 144.528C267.53 144.729 266.997 144.781 266.483 144.679C265.969 144.577 265.497 144.324 265.126 143.954C264.756 143.583 264.503 143.111 264.401 142.597C264.299 142.083 264.351 141.55 264.552 141.066C264.752 140.582 265.092 140.168 265.528 139.877C265.964 139.585 266.476 139.43 267 139.43C267.703 139.43 268.377 139.709 268.874 140.206C269.371 140.703 269.65 141.377 269.65 142.08Z" fill="#263238"/>
<path d="M137.39 357H188.28C189.946 357 191.543 357.662 192.721 358.839C193.898 360.017 194.56 361.614 194.56 363.28V369.52L207.12 375.17L194.56 378.54V382.44C194.56 384.106 193.898 385.703 192.721 386.881C191.543 388.058 189.946 388.72 188.28 388.72H137.39C135.724 388.72 134.127 388.058 132.949 386.881C131.772 385.703 131.11 384.106 131.11 382.44V363.32C131.105 362.492 131.263 361.671 131.576 360.904C131.89 360.138 132.351 359.441 132.935 358.853C133.519 358.266 134.213 357.8 134.977 357.482C135.742 357.164 136.562 357 137.39 357Z" fill="white" stroke="#263238" stroke-miterlimit="10"/>
<path d="M171.71 373.41C171.708 373.935 171.862 374.449 172.152 374.886C172.443 375.323 172.857 375.664 173.341 375.866C173.826 376.068 174.36 376.121 174.875 376.019C175.389 375.917 175.863 375.665 176.234 375.294C176.605 374.922 176.858 374.449 176.96 373.934C177.061 373.419 177.008 372.886 176.806 372.401C176.605 371.916 176.263 371.503 175.826 371.212C175.389 370.922 174.875 370.768 174.35 370.77C173.65 370.77 172.978 371.048 172.483 371.543C171.988 372.038 171.71 372.71 171.71 373.41Z" fill="#263238"/>
<path d="M160.15 373.41C160.15 373.932 160.305 374.443 160.595 374.877C160.885 375.311 161.297 375.649 161.78 375.849C162.262 376.049 162.793 376.101 163.305 375.999C163.817 375.897 164.288 375.646 164.657 375.277C165.026 374.908 165.277 374.437 165.379 373.925C165.481 373.413 165.429 372.882 165.229 372.4C165.029 371.917 164.691 371.505 164.257 371.215C163.823 370.925 163.312 370.77 162.79 370.77C162.09 370.77 161.418 371.048 160.923 371.543C160.428 372.038 160.15 372.71 160.15 373.41Z" fill="#263238"/>
<path d="M148.58 373.41C148.578 373.935 148.732 374.448 149.022 374.885C149.312 375.322 149.725 375.663 150.209 375.865C150.693 376.068 151.226 376.121 151.741 376.02C152.256 375.919 152.729 375.668 153.1 375.297C153.472 374.927 153.725 374.455 153.828 373.941C153.931 373.426 153.879 372.893 153.679 372.408C153.479 371.923 153.139 371.509 152.703 371.217C152.267 370.926 151.755 370.77 151.23 370.77C150.529 370.77 149.856 371.048 149.36 371.543C148.863 372.037 148.583 372.709 148.58 373.41Z" fill="#263238"/>
<path d="M137.39 205H188.28C189.946 205 191.543 205.662 192.721 206.839C193.898 208.017 194.56 209.614 194.56 211.28V217.52L207.12 223.17L194.56 226.54V230.44C194.56 232.106 193.898 233.703 192.721 234.881C191.543 236.058 189.946 236.72 188.28 236.72H137.39C135.724 236.72 134.127 236.058 132.949 234.881C131.772 233.703 131.11 232.106 131.11 230.44V211.27C131.113 209.606 131.775 208.011 132.953 206.836C134.13 205.66 135.726 205 137.39 205Z" fill="white" stroke="#263238" stroke-miterlimit="10"/>
<path d="M171.71 221.36C171.71 221.885 171.866 222.397 172.157 222.833C172.449 223.269 172.863 223.609 173.348 223.809C173.833 224.009 174.366 224.061 174.881 223.958C175.395 223.855 175.867 223.602 176.237 223.23C176.608 222.859 176.859 222.386 176.96 221.871C177.061 221.356 177.007 220.823 176.805 220.339C176.603 219.855 176.262 219.442 175.825 219.152C175.388 218.862 174.875 218.708 174.35 218.71C174.002 218.71 173.658 218.779 173.337 218.912C173.016 219.045 172.725 219.241 172.48 219.487C172.234 219.733 172.04 220.025 171.908 220.347C171.776 220.668 171.709 221.012 171.71 221.36Z" fill="#263238"/>
<path d="M160.15 221.36C160.152 221.882 160.308 222.391 160.6 222.824C160.891 223.257 161.304 223.594 161.787 223.792C162.269 223.99 162.8 224.041 163.311 223.938C163.823 223.835 164.292 223.583 164.66 223.213C165.028 222.844 165.279 222.373 165.38 221.861C165.481 221.349 165.428 220.819 165.228 220.337C165.028 219.856 164.69 219.444 164.256 219.154C163.822 218.865 163.312 218.71 162.79 218.71C162.442 218.71 162.098 218.779 161.777 218.912C161.456 219.045 161.165 219.241 160.92 219.487C160.674 219.733 160.48 220.025 160.348 220.347C160.216 220.668 160.149 221.012 160.15 221.36Z" fill="#263238"/>
<path d="M148.58 221.36C148.58 221.884 148.735 222.396 149.027 222.832C149.318 223.268 149.732 223.608 150.216 223.808C150.7 224.009 151.233 224.061 151.747 223.959C152.261 223.857 152.733 223.604 153.104 223.234C153.474 222.863 153.727 222.391 153.829 221.877C153.931 221.363 153.879 220.83 153.678 220.346C153.478 219.862 153.138 219.448 152.702 219.157C152.266 218.865 151.754 218.71 151.23 218.71C150.527 218.71 149.853 218.989 149.356 219.486C148.859 219.983 148.58 220.657 148.58 221.36Z" fill="#263238"/>
<path d="M211.46 200.89C210.28 195.68 205.72 176.1 202.87 172.26C199.58 167.82 180.54 157.51 177.82 155.65C175.1 153.79 170.95 152.36 169.66 152.36C169.66 152.36 159.21 155.94 148.91 158.66C138.61 161.38 132.91 163.24 131.73 166.66C130.73 169.66 126.16 194.88 125.09 200.87L211.46 200.89Z" fill="#616161" stroke="#263238" stroke-linecap="round" stroke-linejoin="round"/>
<path d="M149 199.1C148.567 191.627 148.143 184.16 147.73 176.7" stroke="#263238" stroke-linecap="round" stroke-linejoin="round"/>
<path d="M177.39 175.26C182.26 174.55 184.98 165.67 185.7 161.95C185.8 161.41 185.9 160.95 185.99 160.5C182.11 158.21 178.83 156.35 177.82 155.65C175.1 153.79 170.95 152.36 169.66 152.36C169.66 152.36 165.85 153.67 160.56 155.3C161.27 156.92 163.08 160.92 165.8 166.25C169.38 173.26 172.53 176 177.39 175.26Z" fill="white" stroke="#263238" stroke-linecap="round" stroke-linejoin="round"/>
<path d="M166.51 139.33C166.51 139.33 165.08 154.08 164.94 154.94C164.8 155.8 166.8 161.52 170.24 166.82C173.68 172.12 178.24 171.69 180.54 167.1C182.259 163.266 183.648 159.291 184.69 155.22C182.465 154.742 180.374 153.777 178.567 152.393C176.76 151.01 175.282 149.243 174.24 147.22C170.81 140.34 167.94 137.33 166.51 139.33Z" fill="white" stroke="#263238" stroke-linecap="round" stroke-linejoin="round"/>
<path d="M176.39 104.26C176.39 104.26 167.23 106.98 163.94 114.14C161.26 119.96 162.79 129.03 163.94 132.03C165.09 135.03 165.51 140.91 167.66 146.21C169.81 151.51 175.53 158.21 180.4 159.21C185.27 160.21 194.86 152.48 197.4 148.91C199.94 145.34 199.12 139.17 199.4 138.17C199.68 137.17 203.4 130.01 202.98 121.17C202.56 112.33 190.28 101.83 176.39 104.26Z" fill="white" stroke="#263238" stroke-linecap="round" stroke-linejoin="round"/>
<path d="M194 137.19C194 137.19 195.29 145.49 193.28 146.35C191.27 147.21 187.41 145.92 186.84 144.77" stroke="#263238" stroke-linecap="round" stroke-linejoin="round"/>
<path d="M185.7 149.21C183.483 148.175 181.561 146.6 180.11 144.63C180.11 144.63 176.96 149.35 180.4 150.63C181.315 151.018 182.334 151.089 183.294 150.832C184.254 150.574 185.101 150.004 185.7 149.21Z" fill="#263238" stroke="#263238" stroke-linecap="round" stroke-linejoin="round"/>
<path d="M187.37 136.93C187.02 138.06 186.28 138.84 185.71 138.67C185.14 138.5 184.97 137.44 185.31 136.3C185.65 135.16 186.4 134.39 186.96 134.56C187.52 134.73 187.71 135.79 187.37 136.93Z" fill="#263238"/>
<path d="M197.39 138.5C197.04 139.64 196.3 140.42 195.73 140.24C195.16 140.06 194.99 139.01 195.33 137.88C195.67 136.75 196.42 135.96 196.99 136.13C197.56 136.3 197.73 137.37 197.39 138.5Z" fill="#263238"/>
<path d="M190.28 131.83C190.042 131.833 189.813 131.743 189.64 131.58C186.97 129.02 183.98 131.38 183.85 131.48C183.756 131.556 183.648 131.613 183.532 131.648C183.416 131.682 183.295 131.693 183.175 131.681C183.054 131.668 182.938 131.632 182.831 131.575C182.725 131.517 182.631 131.439 182.555 131.345C182.479 131.251 182.422 131.143 182.388 131.027C182.353 130.912 182.342 130.79 182.354 130.67C182.367 130.549 182.403 130.433 182.461 130.327C182.518 130.22 182.596 130.126 182.69 130.05C183.845 129.063 185.323 128.537 186.841 128.572C188.36 128.607 189.812 129.201 190.92 130.24C191.093 130.414 191.19 130.65 191.19 130.895C191.19 131.141 191.093 131.376 190.92 131.55C190.837 131.637 190.738 131.706 190.628 131.754C190.518 131.802 190.4 131.828 190.28 131.83Z" fill="#263238"/>
<path d="M200.87 135C200.715 134.999 200.563 134.961 200.427 134.888C200.291 134.814 200.175 134.709 200.09 134.58C199.907 134.216 199.647 133.897 199.327 133.644C199.008 133.392 198.636 133.213 198.24 133.12C197.546 133.091 196.866 133.319 196.33 133.76C196.24 133.841 196.135 133.903 196.021 133.943C195.907 133.983 195.786 134.001 195.666 133.994C195.545 133.988 195.427 133.958 195.317 133.905C195.208 133.853 195.111 133.78 195.03 133.69C194.949 133.6 194.887 133.495 194.847 133.381C194.807 133.267 194.789 133.146 194.796 133.025C194.802 132.905 194.832 132.787 194.885 132.677C194.937 132.568 195.01 132.471 195.1 132.39C195.562 131.988 196.101 131.684 196.683 131.495C197.266 131.306 197.88 131.236 198.49 131.29C199.155 131.409 199.785 131.677 200.332 132.074C200.879 132.47 201.33 132.985 201.65 133.58C201.74 133.719 201.791 133.881 201.797 134.047C201.803 134.213 201.764 134.377 201.684 134.523C201.604 134.669 201.486 134.79 201.343 134.874C201.2 134.958 201.036 135.001 200.87 135Z" fill="#263238"/>
<path d="M164.18 132.76C164.24 132.94 164.29 133.12 164.34 133.31V133.43C164.4 133.63 164.45 133.84 164.5 134.05V134.11C164.5 134.35 164.61 134.59 164.66 134.84L169.18 133.84C169.18 133.84 173.33 134.7 173.91 133.27C174.49 131.84 171.76 129.69 173.76 127.55C175.76 125.41 181.35 126.83 181.92 124.11C182.49 121.39 183.92 111.66 195.52 114.66C197.885 115.43 200.153 116.471 202.28 117.76C199.46 109.84 188.5 102.08 176.34 104.21C176.34 104.21 167.18 106.93 163.89 114.09C161.21 119.91 162.74 128.98 163.89 131.98C163.96 132.17 164.03 132.38 164.1 132.59L164.18 132.76Z" fill="#263238" stroke="#263238" stroke-linecap="round" stroke-linejoin="round"/>
<path d="M171.24 136.33C171.24 136.33 169.95 130.75 166.51 130.17C163.07 129.59 161.79 133.75 162.51 137.47C163.23 141.19 166.94 144.63 170.24 143.63" fill="white"/>
<path d="M171.24 136.33C171.24 136.33 169.95 130.75 166.51 130.17C163.07 129.59 161.79 133.75 162.51 137.47C163.23 141.19 166.94 144.63 170.24 143.63" stroke="#263238" stroke-linecap="round" stroke-linejoin="round"/>
<path d="M182.58 200.89C185.19 198.05 191.26 191.46 191.71 191.01C192.16 190.56 193.14 190.44 196.43 189.58C199.72 188.72 205.16 186.86 206.02 186.14C207.31 185.317 208.469 184.306 209.46 183.14C210.159 181.989 210.78 180.793 211.32 179.56C211.75 178.84 215.18 177.27 216.04 176.56C216.9 175.85 217.76 174.42 217.47 173.7C217.18 172.98 212.18 174.42 207.6 175.42C205.149 175.986 202.658 176.367 200.15 176.56C200.15 176.56 202.73 172.84 204.3 171.12C205.87 169.4 205.3 165.68 204.16 167.12C203.02 168.56 195.72 176 194.16 176.57C192.6 177.14 189.01 182.44 186.57 184.88C184.57 186.88 168.31 197.41 162.87 200.88L182.58 200.89Z" fill="white" stroke="#263238" stroke-linecap="round" stroke-linejoin="round"/>
<path d="M211.32 179.56L206.45 181.28" stroke="#263238" stroke-linecap="round" stroke-linejoin="round"/>
<path d="M291.94 200.89H127.91" stroke="#263238" stroke-linecap="round" stroke-linejoin="round"/>
<path d="M291.55 273.77C291.05 269.96 288.92 255.03 285.78 248.17C284.271 244.832 282.071 241.853 279.325 239.429C276.579 237.005 273.349 235.192 269.85 234.11C264.1 232.37 256.6 230.9 252.85 231.43C252.85 231.43 240.4 235.72 235.05 236.92C229.7 238.12 224.15 241.87 221.87 245.09C219.87 247.95 209.39 269.14 207.12 273.77H291.55Z" fill="white" stroke="#263238" stroke-linecap="round" stroke-linejoin="round"/>
<path d="M291.55 273.77C291.05 269.96 288.92 255.03 285.78 248.17C284.271 244.832 282.071 241.853 279.325 239.429C276.579 237.005 273.349 235.192 269.85 234.11C264.1 232.37 256.6 230.9 252.85 231.43C252.85 231.43 244.32 234.37 238.34 236.06C236.47 238.98 232.27 245.46 228.34 250.98C223.34 257.98 221.34 268.1 224.05 273.77H291.55Z" fill="#145A31" stroke="#263238" stroke-linecap="round" stroke-linejoin="round"/>
<path d="M244.82 223.67C246.043 228.342 246.496 233.182 246.16 238C245.62 246.17 241.34 251.39 242.95 255.54C244.56 259.69 250.95 261.29 256.6 256.88C262.25 252.47 263.29 241.62 263.43 236.8C263.57 231.98 265.84 217 265.84 217C265.84 217 259.84 224.09 252.84 224.36C245.84 224.63 244.82 223.67 244.82 223.67Z" fill="white" stroke="#263238" stroke-linecap="round" stroke-linejoin="round"/>
<path d="M246.29 185.39C246.29 185.39 237.29 186.99 233.18 194.89C229.18 202.46 231.08 215.19 235.03 222.73C240.03 232.25 239.73 235.51 239.78 243.92C239.828 244.488 239.759 245.06 239.576 245.6C239.394 246.14 239.102 246.637 238.72 247.06C236.66 249.06 236.39 246.06 235.85 247.76C235.31 249.46 240.85 253.22 246.56 248.25C250.26 245.02 251.11 235.99 249.37 230.76C247.63 225.53 238.93 214.7 240.81 206.27C242.69 197.84 249.24 190.88 249.81 187.66C250.38 184.44 246.29 185.39 246.29 185.39Z" fill="#263238"/>
<mask id="mask1_8_711" style="mask-type:luminance" maskUnits="userSpaceOnUse" x="230" y="185" width="21" height="66">
<path d="M246.29 185.39C246.29 185.39 237.29 186.99 233.18 194.89C229.18 202.46 231.08 215.19 235.03 222.73C240.03 232.25 239.73 235.51 239.78 243.92C239.828 244.488 239.759 245.06 239.576 245.6C239.394 246.14 239.102 246.637 238.72 247.06C236.66 249.06 236.39 246.06 235.85 247.76C235.31 249.46 240.85 253.22 246.56 248.25C250.26 245.02 251.11 235.99 249.37 230.76C247.63 225.53 238.93 214.7 240.81 206.27C242.69 197.84 249.24 190.88 249.81 187.66C250.38 184.44 246.29 185.39 246.29 185.39Z" fill="white"/>
</mask>
<g mask="url(#mask1_8_711)">
<path d="M246.67 190.29C246.67 190.29 231.11 199.62 233.54 214.06C235.97 228.5 251.54 232.72 250.07 247.6" stroke="#636363" stroke-linecap="round" stroke-linejoin="round"/>
</g>
<path d="M246.29 185.39C246.29 185.39 237.29 186.99 233.18 194.89C229.18 202.46 231.08 215.19 235.03 222.73C240.03 232.25 239.73 235.51 239.78 243.92C239.828 244.488 239.759 245.06 239.576 245.6C239.394 246.14 239.102 246.637 238.72 247.06C236.66 249.06 236.39 246.06 235.85 247.76C235.31 249.46 240.85 253.22 246.56 248.25C250.26 245.02 251.11 235.99 249.37 230.76C247.63 225.53 238.93 214.7 240.81 206.27C242.69 197.84 249.24 190.88 249.81 187.66C250.38 184.44 246.29 185.39 246.29 185.39Z" stroke="#263238" stroke-linecap="round" stroke-linejoin="round"/>
<path d="M271.21 273.77H291.55V273.58V273.43V273.21V273V272.91V272.71V272.65V272.39V272.12V272.05V271.81V271.7C291.555 271.61 291.555 271.52 291.55 271.43V271.36C291.55 271.26 291.55 271.16 291.55 271.06V270.99C291.55 270.89 291.55 270.8 291.55 270.71V270.58C291.55 270.49 291.55 270.4 291.55 270.3V270.2L291.49 269.84L291.43 269.48V269.4L291.37 269.01C291.37 268.86 291.32 268.71 291.3 268.56C291.23 268.1 291.15 267.62 291.07 267.13C291.07 266.98 291.07 266.83 290.99 266.68V266.63C290.99 266.48 290.94 266.33 290.91 266.18V266.11C290.91 265.97 290.86 265.83 290.83 265.68V265.57C290.83 265.44 290.83 265.31 290.76 265.18V265.02L290.7 264.67V264.49L290.64 264.15V263.98C290.64 263.86 290.59 263.74 290.57 263.62V263.45C290.57 263.33 290.52 263.21 290.5 263.09V262.91C290.5 262.79 290.5 262.68 290.43 262.56V262.38C290.43 262.26 290.43 262.14 290.36 262.02V261.83C290.36 261.72 290.31 261.6 290.29 261.48V261.29C290.29 261.17 290.24 261.06 290.21 260.94V260.75C290.21 260.63 290.21 260.51 290.13 260.39C290.135 260.33 290.135 260.27 290.13 260.21C290.13 260.09 290.08 259.96 290.06 259.84V259.66L289 259V258.85C289 258.71 288.94 258.56 288.9 258.41V258.31L288.78 257.79C288.7 257.43 288.61 257.07 288.52 256.71V256.63C288.52 256.48 288.45 256.33 288.42 256.18V256.02L288.33 255.66C288.31 255.598 288.293 255.534 288.28 255.47L288.19 255.13C288.19 255.07 288.19 255 288.14 254.94C288.09 254.88 288.09 254.73 288.06 254.62L288 254.41C288 254.31 287.95 254.21 287.92 254.11L287.86 253.9L287.78 253.61L287.72 253.39C287.72 253.3 287.67 253.21 287.64 253.11L287.58 252.9C287.549 252.812 287.522 252.722 287.5 252.63C287.5 252.55 287.45 252.48 287.43 252.41C287.41 252.34 287.43 252.23 287.35 252.15C287.27 252.07 287.35 252.01 287.28 251.93C287.258 251.845 287.231 251.762 287.2 251.68C287.181 251.609 287.158 251.539 287.13 251.47C287.108 251.382 287.081 251.295 287.05 251.21C287.05 251.15 287.05 251.08 286.98 251.01C286.91 250.94 286.93 250.84 286.9 250.76C286.87 250.68 286.85 250.63 286.83 250.56L286.74 250.32C286.721 250.255 286.698 250.192 286.67 250.13C286.648 250.049 286.621 249.969 286.59 249.89C286.562 249.832 286.539 249.772 286.52 249.71L286.43 249.47C286.43 249.41 286.43 249.35 286.36 249.3L286.26 249.06L286.2 248.9C286.2 248.81 286.13 248.73 286.09 248.65C286.069 248.605 286.052 248.558 286.04 248.51L285.87 248.15C284.429 244.995 282.371 242.16 279.817 239.812C277.263 237.464 274.265 235.652 271 234.48C270.11 237.59 267.87 246.29 268.41 253.48C268.89 260.32 270.47 269.64 271.21 273.77Z" fill="white" stroke="#263238" stroke-linecap="round" stroke-linejoin="round"/>
<path d="M247.5 185.92C247.5 185.92 242.41 189.8 240.81 194.09C239.21 198.38 237.86 209.21 238.13 213.5C238.4 217.79 243.88 225.28 246.13 227.15C248.38 229.02 258.13 226.88 262.73 222.6C265.91 219.6 268.62 209.35 266.48 199.31C264.34 189.27 254.06 183.51 247.5 185.92Z" fill="white" stroke="#263238" stroke-linecap="round" stroke-linejoin="round"/>
<path d="M251.92 205.47C251.92 205.47 254.86 202.39 259.81 204.93" stroke="#263238" stroke-linecap="round" stroke-linejoin="round"/>
<path d="M244.69 203.73C244.461 202.777 243.98 201.903 243.298 201.199C242.615 200.495 241.756 199.988 240.81 199.73" stroke="#263238" stroke-linecap="round" stroke-linejoin="round"/>
<path d="M247.1 202.39C247.1 202.39 246.83 204.93 245.89 205.87C244.95 206.81 242.95 207.74 243.75 209.62C244.55 211.5 246.96 211.89 248.03 210.82" stroke="#263238" stroke-linecap="round" stroke-linejoin="round"/>
<path d="M241.07 197.17C241.07 197.17 243.35 194.36 247.07 197.17" stroke="#263238" stroke-linecap="round" stroke-linejoin="round"/>
<path d="M251.25 198.51C251.25 198.51 255.66 195.83 259.14 200.78" stroke="#263238" stroke-linecap="round" stroke-linejoin="round"/>
<path d="M243.48 213.9C243.48 213.9 245.36 216.44 250.48 215.77C255.6 215.1 256.77 212.96 256.77 212.96" stroke="#263238" stroke-linecap="round" stroke-linejoin="round"/>
<path d="M255.66 205.4C255.66 205.651 255.585 205.897 255.446 206.106C255.306 206.315 255.108 206.477 254.876 206.573C254.644 206.67 254.389 206.695 254.142 206.646C253.896 206.597 253.67 206.476 253.492 206.298C253.314 206.121 253.193 205.894 253.144 205.648C253.095 205.402 253.121 205.146 253.217 204.914C253.313 204.682 253.476 204.484 253.684 204.344C253.893 204.205 254.139 204.13 254.39 204.13C254.727 204.13 255.05 204.264 255.288 204.502C255.526 204.74 255.66 205.063 255.66 205.4Z" fill="#263238"/>
<path d="M243.88 202.45C243.88 202.701 243.806 202.947 243.666 203.156C243.526 203.365 243.328 203.527 243.096 203.624C242.864 203.72 242.609 203.745 242.362 203.696C242.116 203.647 241.89 203.526 241.712 203.348C241.534 203.171 241.413 202.944 241.364 202.698C241.315 202.452 241.341 202.196 241.437 201.964C241.533 201.732 241.696 201.534 241.905 201.394C242.113 201.255 242.359 201.18 242.61 201.18C242.947 201.18 243.27 201.314 243.508 201.552C243.746 201.79 243.88 202.113 243.88 202.45Z" fill="#263238"/>
<path d="M246.43 215.64C246.43 215.64 248.57 220.06 252.32 219.64C256.07 219.22 255.8 214 255.8 214C252.974 215.652 249.649 216.235 246.43 215.64Z" fill="#263238" stroke="#263238" stroke-linecap="round" stroke-linejoin="round"/>
<path d="M258.6 174.42H258.3C253.5 174.97 247.2 175.98 243.35 179.07C238.66 182.81 240.27 183.75 244.55 185.89C248.83 188.03 261.55 195.13 262.76 205.3C263.97 215.47 259.81 231.4 257.81 238.63C255.81 245.86 258.47 250.81 262.36 254.29C263.236 255.104 264.277 255.72 265.413 256.096C266.548 256.472 267.751 256.6 268.94 256.47C271.12 256.25 273.86 255.67 275.59 254.25C275.78 254.1 277.97 251.79 277.59 251.48C275.67 249.85 273.36 252.19 272.19 249.95C269.8 245.35 273.51 239.84 276.02 236.06C278.07 232.97 281.48 231.06 283.56 228.06C285.584 224.824 286.811 221.153 287.14 217.35C288.09 209.21 286.56 200.58 283.7 192.95C279.99 183.05 272.31 174.25 261 174.28C260.22 174.29 259.4 174.33 258.6 174.42Z" fill="#263238"/>
<mask id="mask2_8_711" style="mask-type:luminance" maskUnits="userSpaceOnUse" x="240" y="174" width="48" height="83">
<path d="M258.6 174.42H258.3C253.5 174.97 247.2 175.98 243.35 179.07C238.66 182.81 240.27 183.75 244.55 185.89C248.83 188.03 261.55 195.13 262.76 205.3C263.97 215.47 259.81 231.4 257.81 238.63C255.81 245.86 258.47 250.81 262.36 254.29C263.236 255.104 264.277 255.72 265.413 256.096C266.548 256.472 267.751 256.6 268.94 256.47C271.12 256.25 273.86 255.67 275.59 254.25C275.78 254.1 277.97 251.79 277.59 251.48C275.67 249.85 273.36 252.19 272.19 249.95C269.8 245.35 273.51 239.84 276.02 236.06C278.07 232.97 281.48 231.06 283.56 228.06C285.584 224.824 286.811 221.153 287.14 217.35C288.09 209.21 286.56 200.58 283.7 192.95C279.99 183.05 272.31 174.25 261 174.28C260.22 174.29 259.4 174.33 258.6 174.42Z" fill="white"/>
</mask>
<g mask="url(#mask2_8_711)">
<path d="M237.41 178.62C237.41 178.62 251.41 180.13 260.33 192.24C269.25 204.35 271.79 212.57 271.57 223.81C271.35 235.05 280.44 240.25 287.14 237" stroke="#636363" stroke-linecap="round" stroke-linejoin="round"/>
<path d="M249.73 175.16C249.73 175.16 267.9 178.62 273.73 196.78C279.56 214.94 277.2 226 285 227.49" stroke="#636363" stroke-linecap="round" stroke-linejoin="round"/>
<path d="M258.81 209.11C258.81 209.11 265.52 225.33 263.81 240.68C262.1 256.03 268.81 258.85 279.6 256.03" stroke="#636363" stroke-linecap="round" stroke-linejoin="round"/>
</g>
<path d="M258.6 174.42H258.3C253.5 174.97 247.2 175.98 243.35 179.07C238.66 182.81 240.27 183.75 244.55 185.89C248.83 188.03 261.55 195.13 262.76 205.3C263.97 215.47 259.81 231.4 257.81 238.63C255.81 245.86 258.47 250.81 262.36 254.29C263.236 255.104 264.277 255.72 265.413 256.096C266.548 256.472 267.751 256.6 268.94 256.47C271.12 256.25 273.86 255.67 275.59 254.25C275.78 254.1 277.97 251.79 277.59 251.48C275.67 249.85 273.36 252.19 272.19 249.95C269.8 245.35 273.51 239.84 276.02 236.06C278.07 232.97 281.48 231.06 283.56 228.06C285.584 224.824 286.811 221.153 287.14 217.35C288.09 209.21 286.56 200.58 283.7 192.95C279.99 183.05 272.31 174.25 261 174.28C260.22 174.29 259.4 174.33 258.6 174.42Z" stroke="#263238" stroke-linecap="round" stroke-linejoin="round"/>
<path d="M193.42 249.24C194.499 250.218 195.779 250.948 197.17 251.38C197.17 251.38 199.31 257.94 199.17 263.16C199.158 266.71 199.406 270.256 199.91 273.77H216.31C213.304 268.588 210.748 263.158 208.67 257.54C206.13 249.91 207.2 245.62 205.46 240.67C203.72 235.72 202.91 233.31 199.97 229.43C197.03 225.55 194.35 226.75 194.35 228.09C194.35 229.43 195.95 229.96 197.16 231.84C197.987 233.232 198.658 234.711 199.16 236.25C199.16 236.25 193.53 238.8 191.93 241.61C190.33 244.42 191.68 247.63 193.42 249.24Z" fill="white" stroke="#263238" stroke-linecap="round" stroke-linejoin="round"/>
<path d="M189.54 239.47C189.54 239.47 187.4 241.47 187.4 243.47C187.4 245.47 189 248.29 189.81 248.29C190.62 248.29 191.01 246.82 190.61 245.35C190.21 243.88 189.54 239.47 189.54 239.47Z" fill="white" stroke="#263238" stroke-linecap="round" stroke-linejoin="round"/>
<path d="M192.08 236.65C192.08 236.65 189.54 238.26 188.87 240.27C188.648 241.144 188.628 242.057 188.814 242.939C188.999 243.822 189.385 244.65 189.94 245.36C190.74 246.56 193.15 246.83 193.82 246.16C194.49 245.49 193.95 244.02 193.82 243.16C193.69 242.3 192.35 239.68 192.48 238.48C192.559 237.856 192.606 237.229 192.62 236.6L192.08 236.65Z" fill="white" stroke="#263238" stroke-linecap="round" stroke-linejoin="round"/>
<path d="M199.18 236.25C199.18 236.25 195.69 234.11 193.02 235.58C190.35 237.05 190.47 240 191.41 242.14C192.35 244.28 194.76 245.49 195.83 244.55C196.9 243.61 195.69 242.14 195.96 240.14C196.23 238.14 199.18 236.25 199.18 236.25Z" fill="white" stroke="#263238" stroke-linecap="round" stroke-linejoin="round"/>
<path d="M202.66 240C202.66 240 199.84 236.25 197.3 236.52C194.76 236.79 190.61 241.52 191.41 242.68C192.21 243.84 197 242 197 242C197 242 195.66 246.42 199 247.35" fill="white"/>
<path d="M202.66 240C202.66 240 199.84 236.25 197.3 236.52C194.76 236.79 190.61 241.52 191.41 242.68C192.21 243.84 197 242 197 242C197 242 195.66 246.42 199 247.35" stroke="#263238" stroke-linecap="round" stroke-linejoin="round"/>
<path d="M291.94 273.77H127.91" stroke="#263238" stroke-linecap="round" stroke-linejoin="round"/>
<path d="M291.94 352.86H127.91" stroke="#263238" stroke-linecap="round" stroke-linejoin="round"/>
<path d="M216.13 352.54C216.13 352.54 217.59 339.6 212.57 336.2C207.55 332.8 185.73 317.12 177.32 315.2C168.91 313.28 163.74 311.48 160.32 313.42C156.9 315.36 142.88 328 137.06 332C131.24 336 128.33 340.25 127.52 343.32C127.018 346.039 126.853 348.81 127.03 351.57V352.86C127.03 352.86 216.46 352.21 216.13 352.54Z" fill="#263238" stroke="#263238" stroke-linecap="round" stroke-linejoin="round"/>
<path d="M160.34 313.4C159 314.268 157.715 315.216 156.49 316.24C156.527 319.566 157.206 322.853 158.49 325.92C162.67 336.08 172.08 341.84 179.49 338.79C185.81 336.19 188.68 328.07 186.85 319.46C183.858 317.647 180.654 316.209 177.31 315.18C168.91 313.24 163.74 311.46 160.34 313.4Z" fill="white" stroke="#263238" stroke-linecap="round" stroke-linejoin="round"/>
<path d="M162.28 298.2C162.28 298.2 161.96 308.07 161.15 312.27C160.34 316.47 160.34 322.14 164.39 329.27C168.44 336.4 178.29 336.06 181.39 333.27C184.49 330.48 183.81 322.76 183.81 319.85C183.81 316.94 185.52 310.1 185.52 310.1C185.52 310.1 176.05 306.43 171.2 303.2C166.35 299.97 163.9 297.23 162.28 298.2Z" fill="white" stroke="#263238" stroke-linecap="round" stroke-linejoin="round"/>
<path d="M188 271.85C188 271.85 191.88 278.48 192.85 280.42C193.231 281.276 193.386 282.216 193.3 283.149C193.214 284.082 192.891 284.978 192.36 285.75C191.48 286.98 199.36 290.82 199.22 292.84C199.08 294.86 198.37 295.97 196.78 298.26C195.04 300.76 195.69 304.95 194.92 307.89C194.27 310.39 193.47 311.01 190.92 311.95C186.06 313.73 177.01 313.08 172.48 310.82C167.95 308.56 166.34 304.51 164.72 301.6C163.1 298.69 162.94 293.35 163.91 287.69C164.88 282.03 172.48 274.43 177.33 272.33C182.18 270.23 188 271.85 188 271.85Z" fill="white" stroke="#263238" stroke-linecap="round" stroke-linejoin="round"/>
<path d="M192.68 301.76C191.352 302.113 189.966 302.195 188.605 302.001C187.244 301.806 185.937 301.34 184.76 300.63C184.76 300.63 184.76 305.48 187.19 305.63C189.62 305.78 192.68 301.76 192.68 301.76Z" fill="#263238"/>
<path d="M188 288.67C188.25 289.76 188 290.75 187.42 290.88C186.84 291.01 186.2 290.23 185.95 289.14C185.7 288.05 185.95 287.06 186.53 286.93C187.11 286.8 187.72 287.58 188 288.67Z" fill="#263238"/>
<path d="M181.69 285.43C182.248 284.592 183.025 283.923 183.936 283.494C184.848 283.066 185.859 282.895 186.86 283" stroke="#263238" stroke-linecap="round" stroke-linejoin="round"/>
<path d="M197.21 296.74C197.21 296.74 194.71 299.44 193.16 299.64C191.61 299.84 189.88 297.71 190.65 296.36" stroke="#263238" stroke-linecap="round" stroke-linejoin="round"/>
<path d="M168.59 298.2C169.36 297.95 173.12 298.53 172.59 296.42C172.06 294.31 170.98 294 171.78 292.42C172.58 290.84 180.84 286.92 179.06 283.69C177.876 281.603 176.468 279.651 174.86 277.87C174.86 277.87 188.44 275.28 191.35 271.24C194.26 267.2 191.03 260.89 187.63 260.89C184.23 260.89 185.85 262.02 176.8 264.89C167.75 267.76 163.21 264.25 156.42 271.36C149.63 278.47 151.73 292.36 154.32 296.75C156.91 301.14 162.08 304.67 164.67 303.7C167.26 302.73 166.65 298.85 168.59 298.2Z" fill="#263238" stroke="#263238" stroke-linecap="round" stroke-linejoin="round"/>
<path d="M171 299.66C171 299.66 165 292.06 161 294.48C157 296.9 162.94 304.19 165.53 305C168.12 305.81 171.19 303.86 171.19 303.86" fill="white"/>
<path d="M171 299.66C171 299.66 165 292.06 161 294.48C157 296.9 162.94 304.19 165.53 305C168.12 305.81 171.19 303.86 171.19 303.86" stroke="#263238" stroke-linecap="round" stroke-linejoin="round"/>
<path d="M290.86 398.93H126.67" stroke="#263238" stroke-linecap="round" stroke-linejoin="round"/>
<path d="M204.74 394.63C204.74 394.63 204.59 385.73 205.92 384.39C207.25 383.05 240.04 365.11 249.24 365.25C258.44 365.39 271.01 377.92 277.72 381.25C288.4 386.59 288.4 389.55 289.29 392.52C290.18 395.49 290.92 398.9 290.92 398.9H204.74V394.63Z" fill="white"/>
<mask id="mask3_8_711" style="mask-type:luminance" maskUnits="userSpaceOnUse" x="204" y="365" width="87" height="34">
<path d="M204.74 394.63C204.74 394.63 204.59 385.73 205.92 384.39C207.25 383.05 240.04 365.11 249.24 365.25C258.44 365.39 271.01 377.92 277.72 381.25C288.4 386.59 288.4 389.55 289.29 392.52C290.18 395.49 290.92 398.9 290.92 398.9H204.74V394.63Z" fill="white"/>
</mask>
<g mask="url(#mask3_8_711)">
<path d="M290.5 397.11C288.02 396.94 285.35 396.79 282.5 396.67L283.64 389.53L288.34 389.73C287.745 388.471 286.893 387.351 285.84 386.44L284.14 386.37L284.33 385.21C284.1 385.04 283.86 384.86 283.6 384.69L283.34 386.34L281.81 386.28L282.21 383.78C281.35 383.25 280.37 382.69 279.26 382.1L279.14 382.81C275.87 382.63 272.58 382.5 269.3 382.4L269.85 377.4L271.85 377.45C269.92 376.05 267.85 374.45 265.66 372.93L265.48 374.15C261.87 374.1 258.27 374.08 254.73 374.07L255.4 366.77L254.63 366.45L253.93 374.07H252.31L252.92 365.85C251.898 365.538 250.845 365.34 249.78 365.26L249.12 374.08C247.21 374.08 245.32 374.08 243.45 374.08L244.05 366.08L243.23 366.33L242.65 374.05H239.96L240.17 367.34C239.17 367.71 238.06 368.13 236.96 368.57L236.79 374.09C234.01 374.09 231.32 374.18 228.74 374.24L228.84 372.12L228.03 372.5L227.94 374.26H225.87V373.47C222.95 374.88 220.1 376.31 217.5 377.67L222.5 377.52L222.3 382.62L217 383L217.18 378L216.37 378.42L216.21 383.02L214.81 383.09L215.02 379.09C213.84 379.72 212.74 380.31 211.74 380.86L211.62 383.23L207.14 383.5C206.729 383.731 206.338 383.995 205.97 384.29L205.9 384.38L211.58 384.03L211.45 386.48L205.18 386.72C205.03 387.72 204.94 388.82 204.88 389.91C206.7 389.84 208.88 389.75 211.28 389.67L210.93 396.28L204.79 396.4V397.19L210.89 397.07L210.8 398.83H213.98L214.07 397.01H215.72L215.65 398.85H216.45L216.51 396.99L221.88 396.91L221.8 398.85H224.98L225.06 396.85H226.96L226.87 398.85H227.67L227.76 396.85L236.15 396.78L236.09 398.86H239.26L239.33 396.77H241L240.85 398.87H241.64L241.8 396.77H247.46L247.3 398.88H250.48L250.64 396.78H251.89L251.7 398.87H252.5L252.69 396.78C255.88 396.78 259.07 396.78 262.22 396.86L261.93 398.86H265.13L265.42 396.86H266.96L266.75 398.79H267.55L267.76 396.87C270.88 396.93 273.93 397.01 276.88 397.11L276.61 398.79H279.82L280.07 397.22L281.64 397.28L281.4 398.79H282.2L282.43 397.32C285.37 397.45 288.14 397.6 290.71 397.77C290.64 397.68 290.57 397.41 290.5 397.11ZM215.7 396.29H214.06L214.41 389.63L215.93 389.58L215.7 396.29ZM216.04 386.43L214.58 386.48L214.72 383.95L216.13 383.88L216.04 386.43ZM221.86 396.2L216.49 396.28L216.72 389.58L222.13 389.43L221.86 396.2ZM222.25 386.25L216.83 386.4L216.92 383.84C218.62 383.75 220.44 383.67 222.36 383.59L222.25 386.25ZM226.95 396.14H225.04L225.31 389.32H227.31L226.95 396.14ZM227.42 386.14L225.42 386.19L225.53 383.48L227.53 383.4L227.42 386.14ZM227.58 382.61L225.58 382.68L225.78 377.63H227.83L227.58 382.61ZM236.13 396.08L227.75 396.15L228.06 389.3L236.34 389.14L236.13 396.08ZM236.44 385.97C233.6 385.97 230.85 386.06 228.21 386.12L228.34 383.37C230.94 383.28 233.68 383.2 236.53 383.14L236.44 385.97ZM236.55 382.34C233.71 382.41 230.98 382.49 228.38 382.58L228.61 377.58C231.21 377.52 233.92 377.47 236.71 377.43L236.55 382.34ZM239.88 377.34H242.44L242.07 382.23H239.73L239.88 377.34ZM241 396H239.3L239.52 389H241.52L241 396ZM239.58 385.86L239.67 383.01H241.97L241.76 385.88L239.58 385.86ZM247.5 396H241.84L242.36 389H248.03L247.5 396ZM248.26 385.8H242.6L242.81 382.93C244.67 382.93 246.56 382.91 248.48 382.87L248.26 385.8ZM248.54 382.12L242.87 382.17L243.23 377.29H248.9L248.54 382.12ZM252.09 377.24H253.66L253.22 382.11H251.72L252.09 377.24ZM251.94 396H250.68L251.21 388.95H252.59L251.94 396ZM251.45 385.77L251.66 382.89H253.14L252.88 385.77H251.45ZM262.31 396.09C259.15 396.09 255.95 396.02 252.74 396.01L253.39 388.95C256.67 388.95 259.99 388.95 263.34 389L262.31 396.09ZM263.8 385.83C260.4 385.83 257.01 385.77 253.68 385.77L253.94 382.89C257.31 382.89 260.75 382.94 264.21 383.01L263.8 385.83ZM264.33 382.22C260.85 382.15 257.4 382.11 254.01 382.1L254.46 377.23C257.95 377.23 261.46 377.23 265.04 377.31L264.33 382.22ZM268.25 377.36H269.1L268.55 382.36H267.55L268.25 377.36ZM267.41 383.09H268.47L268.16 385.86H267.01L267.41 383.09ZM267 396.21H265.48L266.48 389.11H267.74L267 396.21ZM277 396.46C274 396.36 271 396.28 267.85 396.22L268.63 389.11C271.81 389.16 274.99 389.24 278.16 389.33L277 396.46ZM278.67 386.17C275.45 386.07 272.21 386 268.98 385.94L269.28 383.19C272.55 383.29 275.82 383.42 279.09 383.6L278.67 386.17ZM281.76 396.64L280.2 396.57L281.36 389.44L282.9 389.49L281.76 396.64Z" fill="#ADADAD"/>
</g>
<path d="M204.74 394.63C204.74 394.63 204.59 385.73 205.92 384.39C207.25 383.05 240.04 365.11 249.24 365.25C258.44 365.39 271.01 377.92 277.72 381.25C288.4 386.59 288.4 389.55 289.29 392.52C290.18 395.49 290.92 398.9 290.92 398.9H204.74V394.63Z" stroke="#263238" stroke-linecap="round" stroke-linejoin="round"/>
<path d="M244.34 361.69C244.34 361.69 239.89 361.99 238.71 364.22C237.53 366.45 238.11 367.78 235.71 374.45C233.31 381.12 232 383.06 233.34 383.06C234.68 383.06 238.34 379.2 239.71 378.61C241.08 378.02 244.17 383.2 244.17 383.2C244.17 383.2 250.1 380.09 252.03 379.94C253.96 379.79 258.11 387.8 258.85 386.47C259.59 385.14 261.52 380.24 263.6 375.79C265.68 371.34 266.12 367.63 264.34 364.66C262.56 361.69 245.83 360.8 244.34 361.69Z" fill="#263238" stroke="#263238" stroke-linecap="round" stroke-linejoin="round"/>
<path d="M241.67 360.21C240.986 364.781 240.936 369.425 241.52 374.01C242.52 380.68 244.05 384.54 245.23 383.65C246.41 382.76 253.69 378.31 257.4 373.71C261.11 369.11 261.7 368.52 262.74 366C263.78 363.48 264.96 360.66 264.96 360.66C264.96 360.66 251.17 365.85 241.67 360.21Z" fill="white" stroke="#263238" stroke-linecap="round" stroke-linejoin="round"/>
<path d="M241.82 335.73C241.82 335.73 239.15 331.58 237.67 336.48C236.19 341.38 239.74 344.04 240.19 343.74C240.64 343.44 241.82 335.73 241.82 335.73Z" fill="white" stroke="#263238" stroke-linecap="round" stroke-linejoin="round"/>
<path d="M243.16 325.35C243.16 325.35 238.26 346.56 237.22 352.65C236.18 358.74 242.86 364.36 250.28 365.4C257.7 366.44 264.81 362.88 266.74 359.17C268.67 355.46 274.74 331.73 275.64 330.1C276.54 328.47 279.64 321.35 277.28 318.97C274.92 316.59 271.05 318.38 271.05 318.38C271.05 318.38 268.37 311.55 263.78 311.38C259.19 311.21 258.58 313.3 258.58 313.3C258.58 313.3 254.58 308.41 250.87 309.45C247.16 310.49 247.16 312.86 247.16 312.86C247.16 312.86 240.34 311.23 237.82 316.12C235.3 321.01 242.27 322.5 242.27 322.5C242.27 322.5 240.78 324.61 243.16 325.35Z" fill="white" stroke="#263238" stroke-linecap="round" stroke-linejoin="round"/>
<path d="M270.3 342.71C270.75 342.56 273.72 337.81 276.53 339.71C279.34 341.61 276.09 348.91 273.72 350.09C273.315 350.309 272.869 350.44 272.411 350.475C271.952 350.511 271.492 350.45 271.058 350.296C270.625 350.143 270.228 349.9 269.895 349.584C269.561 349.267 269.297 348.885 269.12 348.46" fill="white"/>
<path d="M270.3 342.71C270.75 342.56 273.72 337.81 276.53 339.71C279.34 341.61 276.09 348.91 273.72 350.09C273.315 350.309 272.869 350.44 272.411 350.475C271.952 350.511 271.492 350.45 271.058 350.296C270.625 350.143 270.228 349.9 269.895 349.584C269.561 349.267 269.297 348.885 269.12 348.46" stroke="#263238" stroke-linecap="round" stroke-linejoin="round"/>
<path d="M277.28 319C274.9 316.63 271.05 318.41 271.05 318.41C271.05 318.41 268.37 311.58 263.78 311.41C259.19 311.24 258.58 313.33 258.58 313.33C258.58 313.33 254.58 308.44 250.87 309.48C247.16 310.52 247.16 312.89 247.16 312.89C247.16 312.89 240.34 311.26 237.82 316.15C235.3 321.04 242.27 322.53 242.27 322.53C242.27 322.53 240.78 324.61 243.16 325.35C244.05 324.46 245.83 320.46 254.88 320.35C263.93 320.24 271.19 326.73 271.19 326.73C271.19 326.73 267.93 330.58 268.97 332.21C270.01 333.84 271.19 333.7 271.05 335.03C270.91 336.36 268.05 348.53 266.89 350.46C266.251 351.397 265.339 352.114 264.278 352.513C263.216 352.912 262.058 352.974 260.96 352.69C258.88 352.09 257.69 350.61 253.96 348.69C250.23 346.77 247.13 346.02 244.46 347.06C241.79 348.1 241.64 348.99 240.16 349.43C238.88 349.82 238.48 348.98 238.11 347.99C237.71 349.92 237.39 351.57 237.19 352.7C236.19 358.78 242.83 364.41 250.25 365.45C257.67 366.49 264.78 362.93 266.71 359.22C268.64 355.51 274.71 331.78 275.61 330.15C276.51 328.52 279.65 321.35 277.28 319Z" fill="#145A31" stroke="#263238" stroke-linecap="round" stroke-linejoin="round"/>
<path d="M245.09 349.83C245.09 349.83 250.57 353.24 254.28 351.16C254.28 351.16 250.57 355.61 248.65 355.61C246.73 355.61 245.09 349.83 245.09 349.83Z" fill="#263238" stroke="#263238" stroke-linecap="round" stroke-linejoin="round"/>
<path d="M249.24 337.29C249.24 338.279 248.947 339.246 248.397 340.068C247.848 340.89 247.067 341.531 246.153 341.909C245.24 342.288 244.234 342.387 243.265 342.194C242.295 342.001 241.404 341.525 240.704 340.826C240.005 340.126 239.529 339.235 239.336 338.265C239.143 337.296 239.242 336.29 239.621 335.377C239.999 334.463 240.64 333.682 241.462 333.133C242.284 332.583 243.251 332.29 244.24 332.29C245.566 332.29 246.838 332.817 247.776 333.754C248.713 334.692 249.24 335.964 249.24 337.29Z" stroke="#263238" stroke-linecap="round" stroke-linejoin="round"/>
<path d="M263.63 339.81C263.63 340.799 263.337 341.766 262.787 342.588C262.238 343.41 261.457 344.051 260.543 344.429C259.63 344.808 258.624 344.907 257.655 344.714C256.685 344.521 255.794 344.045 255.094 343.346C254.395 342.646 253.919 341.755 253.726 340.786C253.533 339.816 253.632 338.81 254.011 337.897C254.389 336.983 255.03 336.202 255.852 335.653C256.674 335.103 257.641 334.81 258.63 334.81C259.956 334.81 261.228 335.337 262.166 336.275C263.103 337.212 263.63 338.484 263.63 339.81Z" stroke="#263238" stroke-linecap="round" stroke-linejoin="round"/>
<path d="M249.39 336.77C249.39 336.77 251.46 335.77 253.99 337.77" stroke="#263238" stroke-linecap="round" stroke-linejoin="round"/>
<path d="M263.63 339.81L273.27 340.18" stroke="#263238" stroke-linecap="round" stroke-linejoin="round"/>
<path d="M250.13 337.37C248.908 339.679 247.82 342.056 246.87 344.49C246.57 345.82 248.2 346.56 250.28 346.56C252.36 346.56 253.28 345.67 253.28 344.78" stroke="#263238" stroke-linecap="round" stroke-linejoin="round"/>
<path d="M249.68 331.73C249.477 331.728 249.278 331.676 249.1 331.58C248.323 331.071 247.421 330.783 246.493 330.748C245.564 330.713 244.644 330.931 243.83 331.38C243.699 331.468 243.551 331.529 243.396 331.56C243.241 331.591 243.082 331.592 242.927 331.561C242.613 331.499 242.338 331.315 242.16 331.05C241.982 330.785 241.917 330.46 241.979 330.147C242.041 329.834 242.225 329.558 242.49 329.38C243.671 328.682 245.021 328.322 246.393 328.337C247.764 328.353 249.105 328.745 250.27 329.47C250.501 329.599 250.683 329.801 250.787 330.044C250.89 330.288 250.91 330.559 250.842 330.815C250.774 331.07 250.623 331.296 250.413 331.457C250.203 331.617 249.945 331.703 249.68 331.7V331.73Z" fill="#145A31"/>
<path d="M264.22 336.63C264.025 336.634 263.833 336.591 263.658 336.504C263.484 336.417 263.334 336.288 263.22 336.13C262.52 335.048 261.502 334.21 260.305 333.731C259.109 333.253 257.793 333.158 256.54 333.46C256.243 333.541 255.926 333.504 255.655 333.356C255.385 333.209 255.182 332.962 255.09 332.668C254.998 332.373 255.024 332.055 255.162 331.78C255.3 331.504 255.539 331.293 255.83 331.19C257.562 330.734 259.394 330.832 261.067 331.471C262.741 332.109 264.172 333.256 265.16 334.75C265.288 334.93 265.364 335.143 265.378 335.363C265.393 335.584 265.345 335.804 265.241 335.999C265.138 336.195 264.981 336.357 264.79 336.468C264.599 336.58 264.381 336.636 264.16 336.63H264.22Z" fill="#145A31"/>
<path d="M244.86 339.29C245.39 339.29 245.82 338.493 245.82 337.51C245.82 336.527 245.39 335.73 244.86 335.73C244.33 335.73 243.9 336.527 243.9 337.51C243.9 338.493 244.33 339.29 244.86 339.29Z" fill="#263238" stroke="#263238" stroke-linecap="round" stroke-linejoin="round"/>
<path d="M258.88 339.74C258.88 340.74 258.45 341.52 257.88 341.52C257.31 341.52 256.88 340.72 256.88 339.74C256.88 338.76 257.31 337.96 257.88 337.96C258.45 337.96 258.88 338.76 258.88 339.74Z" fill="#263238" stroke="#263238" stroke-linecap="round" stroke-linejoin="round"/>
<path d="M73.4333 202.864C82.9585 190.738 80.85 173.186 68.724 163.661C56.5979 154.136 39.0461 156.244 29.521 168.37C19.9958 180.497 22.1043 198.048 34.2304 207.573C46.3564 217.099 63.9082 214.99 73.4333 202.864Z" stroke="#263238" stroke-miterlimit="10"/>
<path d="M40.76 193C40.76 193 59.61 194 66.1 176.68" stroke="#263238" stroke-width="2" stroke-linecap="round" stroke-linejoin="round"/>
<path d="M56.0001 171.94C57.0001 173.35 57.2301 174.88 56.5501 175.36C55.8701 175.84 54.5501 175.08 53.5501 173.67C52.5501 172.26 52.3201 170.74 53.0001 170.26C53.6801 169.78 55.0001 170.54 56.0001 171.94Z" fill="#263238"/>
<path d="M43.7801 179.76C44.7801 181.16 45.0201 182.69 44.3301 183.17C43.6401 183.65 42.3301 182.9 41.3301 181.49C40.3301 180.08 40.1001 178.55 40.7801 178.08C41.4601 177.61 42.7901 178.35 43.7801 179.76Z" fill="#263238"/>
<path d="M369.58 177.58C369.745 181.484 371.064 185.251 373.37 188.405C375.676 191.559 378.865 193.959 382.535 195.301C386.204 196.643 390.189 196.867 393.986 195.945C397.782 195.023 401.22 192.996 403.866 190.121C406.511 187.245 408.244 183.65 408.846 179.789C409.448 175.929 408.893 171.977 407.249 168.432C405.606 164.887 402.949 161.909 399.613 159.875C396.278 157.84 392.414 156.839 388.51 157C385.915 157.107 383.367 157.724 381.011 158.816C378.655 159.909 376.537 161.455 374.779 163.366C373.021 165.278 371.657 167.517 370.765 169.956C369.873 172.395 369.47 174.985 369.58 177.58Z" stroke="#263238" stroke-miterlimit="10"/>
<path d="M398.53 176.67C398.53 176.67 388.01 184.91 377.2 177.52" stroke="#263238" stroke-width="2" stroke-linecap="round" stroke-linejoin="round"/>
<path d="M382.23 172.87C382.821 172.87 383.3 171.885 383.3 170.67C383.3 169.455 382.821 168.47 382.23 168.47C381.639 168.47 381.16 169.455 381.16 170.67C381.16 171.885 381.639 172.87 382.23 172.87Z" fill="#263238"/>
<path d="M391.4 170.24C391.4 171.46 391.88 172.44 392.47 172.44C393.06 172.44 393.54 171.44 393.54 170.24C393.54 169.04 393.06 168.04 392.47 168.04C391.88 168.04 391.4 169 391.4 170.24Z" fill="#263238"/>
<path d="M87.8934 408.877C98.066 398.416 97.8324 381.689 87.3717 371.517C76.911 361.344 60.1845 361.578 50.0119 372.038C39.8393 382.499 40.0728 399.226 50.5335 409.398C60.9942 419.571 77.7208 419.337 87.8934 408.877Z" stroke="#263238" stroke-miterlimit="10"/>
<path d="M54.0701 399.07C54.0701 399.07 71.0701 389.38 87.4401 387.07C87.4401 387.07 92.1401 402.55 76.4401 408.55C62.9201 413.7 54.0701 399.07 54.0701 399.07Z" stroke="#263238" stroke-miterlimit="10"/>
<path d="M57.4201 391.61C57.1355 391.608 56.8568 391.529 56.6137 391.381C56.3707 391.233 56.1724 391.022 56.0401 390.77L52.1901 383.32C52.0288 382.959 52.0119 382.549 52.1428 382.176C52.2738 381.802 52.5427 381.493 52.8944 381.311C53.2461 381.13 53.6539 381.089 54.0343 381.199C54.4147 381.308 54.7388 381.559 54.9401 381.9L58.7901 389.35C58.9797 389.715 59.0166 390.14 58.8929 390.532C58.7691 390.924 58.4947 391.25 58.1301 391.44C57.9091 391.549 57.6665 391.607 57.4201 391.61Z" fill="#263238"/>
<path d="M78.0001 384.16C77.6445 384.159 77.2999 384.036 77.0234 383.813C76.747 383.589 76.5553 383.278 76.4801 382.93L74.6901 374.46C74.6627 374.087 74.7709 373.718 74.9946 373.418C75.2183 373.119 75.5426 372.911 75.9077 372.832C76.2728 372.753 76.6542 372.808 76.9817 372.988C77.3092 373.168 77.5607 373.46 77.6901 373.81L79.4801 382.29C79.5661 382.692 79.4891 383.111 79.266 383.456C79.0428 383.801 78.6918 384.044 78.2901 384.13L78.0001 384.16Z" fill="#263238"/>
<path d="M81.0001 406.22C79.5701 402.71 74.6001 401.28 69.7401 403.03C67.2784 403.862 65.1823 405.524 63.8101 407.73" stroke="#263238" stroke-miterlimit="10"/>
<path d="M376 273.18C374.965 276.047 374.803 279.156 375.535 282.114C376.267 285.073 377.86 287.748 380.112 289.801C382.364 291.854 385.175 293.194 388.188 293.65C391.202 294.106 394.283 293.658 397.041 292.363C399.8 291.069 402.113 288.985 403.688 286.375C405.263 283.766 406.028 280.748 405.888 277.704C405.748 274.659 404.708 271.725 402.899 269.271C401.091 266.818 398.596 264.956 395.73 263.92C393.827 263.233 391.806 262.927 389.784 263.02C387.763 263.113 385.779 263.604 383.947 264.463C382.115 265.323 380.47 266.536 379.106 268.031C377.743 269.527 376.687 271.277 376 273.18Z" stroke="#263238" stroke-miterlimit="10"/>
<path d="M399.19 283.46C399.19 283.46 389.28 277.8 379.73 276.46C379.73 276.46 376.99 285.46 386.12 288.99C394 292 399.19 283.46 399.19 283.46Z" stroke="#263238" stroke-miterlimit="10"/>
<path d="M397.23 279.1C397.396 279.103 397.56 279.059 397.703 278.974C397.846 278.89 397.963 278.767 398.04 278.62L400.28 274.27C400.39 274.057 400.411 273.81 400.34 273.582C400.269 273.354 400.111 273.163 399.9 273.05C399.686 272.944 399.439 272.925 399.211 272.998C398.983 273.071 398.793 273.229 398.68 273.44L396.43 277.79C396.322 278.002 396.302 278.249 396.375 278.476C396.448 278.702 396.608 278.891 396.82 279C396.946 279.067 397.087 279.101 397.23 279.1Z" fill="#263238"/>
<path d="M385.25 274.76C385.457 274.76 385.658 274.688 385.818 274.557C385.978 274.425 386.089 274.243 386.13 274.04L387.18 269.1C387.21 268.982 387.216 268.86 387.197 268.74C387.178 268.62 387.136 268.505 387.071 268.403C387.007 268.3 386.923 268.211 386.823 268.141C386.724 268.072 386.612 268.023 386.493 267.998C386.374 267.973 386.252 267.972 386.133 267.996C386.014 268.02 385.901 268.067 385.8 268.135C385.7 268.204 385.615 268.292 385.55 268.394C385.484 268.496 385.44 268.61 385.42 268.73L384.37 273.67C384.345 273.786 384.343 273.905 384.364 274.021C384.385 274.138 384.429 274.249 384.493 274.348C384.557 274.447 384.64 274.533 384.738 274.6C384.835 274.668 384.944 274.715 385.06 274.74L385.25 274.76Z" fill="#263238"/>
<path d="M383.46 287.62C384.29 285.62 387.2 284.74 390.03 285.77C391.467 286.248 392.689 287.218 393.48 288.51" stroke="#263238" stroke-miterlimit="10"/>
<path d="M358.724 264.501C362.283 251.572 354.687 238.207 341.758 234.648C328.83 231.089 315.464 238.685 311.905 251.614C308.347 264.542 315.943 277.908 328.871 281.467C341.8 285.025 355.165 277.429 358.724 264.501Z" stroke="#263238" stroke-miterlimit="10"/>
<path d="M316.52 253.93C316.299 253.985 316.067 253.958 315.865 253.854C315.663 253.75 315.505 253.577 315.421 253.366C315.336 253.155 315.332 252.921 315.407 252.706C315.482 252.492 315.632 252.312 315.83 252.2L321.88 248.94L317.83 248.8C317.581 248.791 317.345 248.683 317.176 248.5C317.006 248.317 316.916 248.074 316.925 247.825C316.934 247.576 317.042 247.34 317.225 247.171C317.408 247.001 317.651 246.911 317.9 246.92L325.41 247.18C325.614 247.197 325.807 247.276 325.965 247.407C326.122 247.537 326.236 247.713 326.29 247.91C326.319 248.104 326.289 248.303 326.206 248.481C326.122 248.659 325.988 248.808 325.82 248.91L316.72 253.81L316.52 253.93Z" fill="#263238"/>
<path d="M348.89 245C348.817 245.01 348.743 245.01 348.67 245L338.79 245.32C338.582 245.328 338.378 245.268 338.208 245.147C338.039 245.027 337.914 244.854 337.853 244.655C337.793 244.456 337.8 244.242 337.873 244.048C337.947 243.853 338.083 243.689 338.26 243.58L344.93 239.42C345.146 239.301 345.398 239.266 345.637 239.322C345.877 239.377 346.088 239.519 346.23 239.72C346.36 239.931 346.402 240.185 346.346 240.427C346.29 240.668 346.14 240.878 345.93 241.01L342.21 243.33L348.61 243.13C348.836 243.128 349.056 243.207 349.228 243.354C349.401 243.501 349.514 243.705 349.548 243.929C349.582 244.152 349.534 244.381 349.414 244.572C349.293 244.763 349.107 244.905 348.89 244.97V245Z" fill="#263238"/>
<path d="M316.12 258.15C321.27 267.64 330.41 273.05 338.82 270.73C347.23 268.41 352.32 259.1 351.89 248.31L348.64 248.65C338.245 249.717 328.103 252.527 318.64 256.96L316.12 258.15Z" stroke="#263238" stroke-miterlimit="10"/>
<path d="M327.35 269.45C327.27 268.978 327.23 268.499 327.23 268.02C327.23 262.52 332.11 258.02 338.13 258.02C340.123 257.98 342.09 258.483 343.82 259.475C345.549 260.467 346.977 261.91 347.95 263.65" stroke="#263238" stroke-miterlimit="10"/>
<path d="M91.9424 275.668C101.243 272.189 105.962 261.829 102.483 252.528C99.0038 243.228 88.6437 238.508 79.3431 241.988C70.0425 245.467 65.3233 255.827 68.8025 265.128C72.2817 274.428 82.6418 279.147 91.9424 275.668Z" stroke="#263238" stroke-miterlimit="10"/>
<path d="M99.59 255.76C99.7407 255.801 99.9009 255.79 100.044 255.728C100.188 255.666 100.306 255.558 100.38 255.42C100.425 255.34 100.454 255.252 100.464 255.161C100.475 255.07 100.466 254.978 100.44 254.89C100.414 254.803 100.37 254.721 100.312 254.65C100.254 254.58 100.181 254.522 100.1 254.48L95.62 252.06L98.62 251.96C98.803 251.95 98.975 251.869 99.0998 251.735C99.2247 251.601 99.2929 251.423 99.29 251.24C99.2874 251.148 99.2667 251.058 99.229 250.975C99.1913 250.892 99.1373 250.817 99.0703 250.754C99.0033 250.692 98.9246 250.643 98.8387 250.612C98.7528 250.58 98.6614 250.566 98.57 250.57L93.01 250.76C92.8588 250.769 92.7146 250.827 92.599 250.924C92.4834 251.022 92.4027 251.155 92.3689 251.303C92.3351 251.45 92.35 251.605 92.4115 251.743C92.473 251.881 92.5778 251.996 92.71 252.07L99.44 255.7L99.59 255.76Z" fill="#263238"/>
<path d="M75.6301 249.17H75.7901L83.1001 249.4C83.2535 249.408 83.4051 249.364 83.5307 249.275C83.6564 249.187 83.7489 249.059 83.7937 248.912C83.8385 248.765 83.8329 248.607 83.7779 248.464C83.7229 248.32 83.6216 248.199 83.4901 248.12L78.5501 245.04C78.4715 244.984 78.3821 244.945 78.2875 244.926C78.193 244.907 78.0955 244.907 78.0012 244.928C77.907 244.949 77.8181 244.989 77.7404 245.046C77.6627 245.103 77.5979 245.176 77.5501 245.26C77.4941 245.339 77.4551 245.428 77.4358 245.523C77.4165 245.617 77.4172 245.715 77.438 245.809C77.4587 245.903 77.499 245.992 77.5562 246.07C77.6134 246.147 77.6862 246.212 77.7701 246.26L80.5201 247.97L75.7801 247.82C75.6894 247.817 75.5992 247.833 75.5145 247.865C75.4297 247.897 75.3522 247.946 75.2862 248.008C75.2203 248.07 75.1673 248.145 75.1302 248.227C75.0931 248.31 75.0727 248.399 75.0701 248.49C75.0714 248.65 75.1278 248.805 75.2297 248.929C75.3316 249.053 75.473 249.138 75.6301 249.17Z" fill="#263238"/>
<path d="M99.8901 258.89C96.0801 265.89 89.3101 269.89 83.0801 268.2C76.8501 266.51 73.0801 259.59 73.4001 251.6L75.8101 251.85C83.499 252.643 91.0001 254.722 98.0001 258L99.8901 258.89Z" stroke="#263238" stroke-miterlimit="10"/>
<path d="M91.5801 267.25C91.6319 266.899 91.6587 266.545 91.6601 266.19C91.6601 262.12 88.0501 258.82 83.5901 258.82C82.1158 258.794 80.662 259.167 79.3822 259.899C78.1025 260.631 77.0444 261.696 76.3201 262.98" stroke="#263238" stroke-miterlimit="10"/>
<path d="M379.38 85.9615C381.446 70.6807 370.733 56.6184 355.453 54.5523C340.172 52.4863 326.109 63.1989 324.043 78.4797C321.977 93.7604 332.69 107.823 347.971 109.889C363.252 111.955 377.314 101.242 379.38 85.9615Z" stroke="#263238" stroke-miterlimit="10"/>
<path d="M340.21 73.61C340.21 75.33 340.88 76.73 341.72 76.73C342.56 76.73 343.22 75.33 343.22 73.61C343.22 71.89 342.55 70.5 341.72 70.5C340.89 70.5 340.21 71.89 340.21 73.61Z" fill="#263238"/>
<path d="M354.67 73.0001C354.67 74.7201 355.34 76.1101 356.17 76.1101C357 76.1101 357.68 74.7201 357.68 73.0001C357.68 71.2801 357 69.8901 356.17 69.8901C355.34 69.8901 354.67 71.2901 354.67 73.0001Z" fill="#263238"/>
<path d="M338.78 64.77L345.61 72.16" stroke="#263238" stroke-width="2" stroke-linecap="round" stroke-linejoin="round"/>
<path d="M357.05 64.2202L350.78 71.9702" stroke="#263238" stroke-width="2" stroke-linecap="round" stroke-linejoin="round"/>
<path d="M338.23 88.7701C338.23 88.7701 347.23 78.0601 359.64 86.7701" stroke="#263238" stroke-width="2" stroke-linecap="round" stroke-linejoin="round"/>
<path d="M28.0624 322.917C38.8983 322.809 47.5946 313.937 47.4862 303.101C47.3779 292.265 38.5059 283.569 27.67 283.677C16.8342 283.786 8.13789 292.658 8.24625 303.494C8.35461 314.329 17.2266 323.026 28.0624 322.917Z" stroke="#263238" stroke-miterlimit="10"/>
<path d="M28.07 293.67C28.9 294.56 29.22 295.6 28.79 296C28.36 296.4 27.35 296 26.52 295.11C25.69 294.22 25.38 293.19 25.81 292.79C26.24 292.39 27.25 292.79 28.07 293.67Z" fill="#263238"/>
<path d="M20.34 300.28C21.17 301.17 21.49 302.21 21.06 302.61C20.63 303.01 19.62 302.61 18.79 301.73C17.96 300.85 17.65 299.8 18.08 299.4C18.51 299 19.52 299.4 20.34 300.28Z" fill="#263238"/>
<path d="M24.5801 288.44L24.5901 295.51" stroke="#263238" stroke-width="2" stroke-linecap="round" stroke-linejoin="round"/>
<path d="M14.91 296.9L21.85 297.89" stroke="#263238" stroke-width="2" stroke-linecap="round" stroke-linejoin="round"/>
<path d="M36.3501 300.52C36.3501 300.52 26.5701 299.34 24.3501 309.73" stroke="#263238" stroke-width="2" stroke-linecap="round" stroke-linejoin="round"/>
<path d="M106.79 27.26C110.364 30.1565 113.12 33.9362 114.785 38.225C116.45 42.5137 116.966 47.1629 116.283 51.7125C115.599 56.262 113.739 60.5541 110.887 64.1641C108.035 67.7741 104.29 70.5768 100.022 72.2949C95.7547 74.013 91.1123 74.5868 86.5546 73.9597C81.9969 73.3325 77.682 71.5261 74.0369 68.7192C70.3918 65.9124 67.5428 62.2023 65.7719 57.9562C64.001 53.7101 63.3695 49.0751 63.94 44.51" stroke="#263238" stroke-miterlimit="10"/>
<path d="M81.6101 22.8101C82.9153 22.373 84.2527 22.0386 85.6101 21.8101" stroke="#263238" stroke-miterlimit="10"/>
<path d="M75.28 56.4602C75.28 56.4602 92.28 46.7602 108.64 44.4602C108.64 44.4602 113.34 59.9502 97.69 65.9402C84.12 71.0802 75.28 56.4602 75.28 56.4602Z" stroke="#263238" stroke-miterlimit="10"/>
<path d="M102.24 63.6001C100.82 60.0901 95.8401 58.6601 90.9801 60.4101C88.5206 61.2467 86.428 62.9116 85.0601 65.1201" stroke="#263238" stroke-miterlimit="10"/>
<path d="M83.62 25.2801C82.7275 23.7984 81.3788 22.6458 79.7761 21.9952C78.1733 21.3446 76.4028 21.231 74.7301 21.6714C73.0573 22.1118 71.5723 23.0826 70.4978 24.4381C69.4233 25.7937 68.817 27.461 68.77 29.1901C67.2239 28.4157 65.4686 28.1631 63.7669 28.4701C62.0652 28.777 60.5087 29.6271 59.3307 30.893C58.1527 32.1588 57.4166 33.7723 57.2326 35.4916C57.0486 37.211 57.4266 38.9437 58.31 40.4301C62.06 46.6901 79.81 47.7701 79.81 47.7701C79.81 47.7701 88.41 33.2701 83.62 25.2801Z" stroke="#263238" stroke-miterlimit="10"/>
<path d="M109.22 22.2501C109.373 20.8601 109.071 19.4579 108.359 18.2542C107.647 17.0505 106.564 16.1103 105.272 15.5749C103.981 15.0394 102.55 14.9376 101.195 15.2848C99.8405 15.632 98.6351 16.4093 97.76 17.5001C97.1512 16.2391 96.1487 15.2105 94.9037 14.5696C93.6588 13.9287 92.239 13.7103 90.859 13.9474C89.479 14.1846 88.2137 14.8644 87.2541 15.8841C86.2945 16.9039 85.6929 18.2082 85.54 19.6001C84.89 25.4501 95.76 34.8301 95.76 34.8301C95.76 34.8301 108.38 29.7301 109.22 22.2501Z" stroke="#263238" stroke-miterlimit="10"/>
<path d="M331.37 353.86C328.643 356.065 326.54 358.944 325.268 362.213C323.996 365.481 323.6 369.024 324.119 372.493C324.638 375.961 326.055 379.233 328.228 381.986C330.401 384.739 333.255 386.876 336.508 388.186C339.761 389.496 343.3 389.933 346.774 389.455C350.248 388.976 353.537 387.598 356.315 385.458C359.093 383.317 361.263 380.488 362.611 377.251C363.959 374.013 364.438 370.48 364 367" stroke="#263238" stroke-miterlimit="10"/>
<path d="M350.54 350.47C349.542 350.127 348.519 349.862 347.48 349.68" stroke="#263238" stroke-miterlimit="10"/>
<path d="M355.37 376.1C355.37 376.1 342.43 368.71 329.95 366.93C329.95 366.93 326.37 378.72 338.3 383.28C348.63 387.24 355.37 376.1 355.37 376.1Z" stroke="#263238" stroke-miterlimit="10"/>
<path d="M334.83 381.54C335.91 378.87 339.7 377.78 343.4 379.11C345.277 379.742 346.875 381.008 347.92 382.69" stroke="#263238" stroke-miterlimit="10"/>
<path d="M349 352.35C349.68 351.218 350.708 350.338 351.932 349.841C353.155 349.345 354.507 349.26 355.783 349.598C357.059 349.937 358.191 350.681 359.007 351.718C359.824 352.756 360.281 354.03 360.31 355.35C361.488 354.744 362.832 354.54 364.138 354.767C365.443 354.994 366.639 355.64 367.544 356.608C368.448 357.576 369.013 358.813 369.151 360.131C369.289 361.448 368.994 362.775 368.31 363.91C365.45 368.68 351.93 369.5 351.93 369.5C351.93 369.5 345.37 358.44 349 352.35Z" stroke="#263238" stroke-miterlimit="10"/>
<path d="M329.52 350.05C329.398 348.99 329.624 347.92 330.164 347C330.704 346.08 331.53 345.361 332.515 344.952C333.5 344.543 334.592 344.466 335.625 344.733C336.658 345 337.576 345.595 338.24 346.43C338.707 345.473 339.471 344.694 340.419 344.209C341.366 343.723 342.446 343.559 343.495 343.739C344.544 343.919 345.507 344.435 346.238 345.209C346.969 345.982 347.429 346.972 347.55 348.03C348.05 352.49 339.76 359.63 339.76 359.63C339.76 359.63 330.15 355.74 329.52 350.05Z" stroke="#263238" stroke-miterlimit="10"/>
</svg>
